<svg width="24" height="24" viewBox="0 0 24 24" fill="none" xmlns="http://www.w3.org/2000/svg">
<g clip-path="url(#clip0_665_485)">
<path fill-rule="evenodd" clip-rule="evenodd" d="M10.2551 1.38699L11.5151 2.14299C13.1134 3.08742 14.3412 4.54947 14.9951 6.28699C15.2171 5.78699 15.4811 5.30199 15.7261 4.81199L16.7071 5.79299C18.9091 7.99499 21.0001 11.295 21.0001 14.5C21.0001 18.798 18.3501 21.523 14.1101 21.994L12.7201 22.148L13.0241 20.783C13.2611 19.715 13.3041 19.017 13.2541 18.528C13.1941 17.913 12.9021 17.43 12.5381 16.95C12.1901 16.49 11.8451 16.029 11.5691 15.52C10.4341 16.417 9.99407 17.227 9.85307 17.894C9.67307 18.748 9.92807 19.621 10.3941 20.553L11.2161 22.197L9.39007 21.994C6.81407 21.708 4.27607 19.987 3.27607 17.476C2.23107 14.849 2.97007 11.67 6.34607 8.74399C8.58607 6.80299 9.77207 4.28599 10.2551 1.38699ZM11.5871 4.68699C10.8251 6.82699 9.36207 8.77699 7.65507 10.256C4.74407 12.779 4.48307 15.1 5.13507 16.736C5.62007 17.956 6.66707 18.959 7.90807 19.528C7.76221 18.8542 7.75812 18.1574 7.89607 17.482C8.22207 15.936 9.33407 14.487 11.4701 13.152L12.5471 12.479L12.9491 13.684C13.3011 14.74 14.0311 15.487 14.6021 16.414C15.2301 17.434 15.3501 18.604 15.2221 19.772C17.8421 19.117 19.0001 17.13 19.0001 14.5C19.0001 12.278 17.6601 10.098 16.3301 8.39399C15.7821 9.62199 14.6271 10.054 13.5001 10.618V8.99999C13.5001 7.63099 12.9431 5.96199 11.5871 4.68799V4.68699Z" fill="#EF9861"/>
</g>
<defs>
<clipPath id="clip0_665_485">
<rect width="24" height="24" fill="white"/>
</clipPath>
</defs>
</svg>
