<svg width="32" height="43" viewBox="0 0 32 43" fill="none" xmlns="http://www.w3.org/2000/svg">
<path d="M16 43C24.8373 43 32 37.625 32 28.2187C32 24.1875 30.6667 17.4687 25.3333 12.0937C26 16.125 22 17.4687 22 17.4687C24 10.75 18.6667 1.34375 10.6667 0C11.6187 5.375 12 10.75 5.33333 16.125C2 18.8125 0 23.4592 0 28.2187C0 37.625 7.16267 43 16 43ZM16 40.3125C11.5813 40.3125 8 37.625 8 32.9219C8 30.9062 8.66667 27.5469 11.3333 24.8594C11 26.875 13.3333 28.2187 13.3333 28.2187C12.3333 24.8594 14.6667 19.4844 18.6667 18.8125C18.1893 21.5 18 24.1875 21.3333 26.875C23 28.2187 24 30.5407 24 32.9219C24 37.625 20.4187 40.3125 16 40.3125Z" fill="#F2AD81"/>
</svg>
