<svg width="48" height="36" viewBox="0 0 48 36" fill="none" xmlns="http://www.w3.org/2000/svg">
<path d="M25.6001 11.6H32.0001M14.4001 13.2V22.8M9.6001 18H19.2001M32.0001 24.4H38.4001M1.6001 5.2V30.8C1.6001 31.6487 1.93724 32.4626 2.53736 33.0627C3.13747 33.6629 3.9514 34 4.8001 34H43.2001C44.0488 34 44.8627 33.6629 45.4628 33.0627C46.063 32.4626 46.4001 31.6487 46.4001 30.8V5.2C46.4001 4.35131 46.063 3.53737 45.4628 2.93726C44.8627 2.33714 44.0488 2 43.2001 2H4.8001C3.9514 2 3.13747 2.33714 2.53736 2.93726C1.93724 3.53737 1.6001 4.35131 1.6001 5.2V5.2Z" stroke="#F2AD81" stroke-width="3.2"/>
</svg>
