<svg width="48" height="40" viewBox="0 0 48 40" fill="none" xmlns="http://www.w3.org/2000/svg">
<path d="M11.5334 9.8V6.4C11.5334 5.49826 11.1752 4.63346 10.5376 3.99584C9.89994 3.35821 9.03513 3 8.1334 3C7.23166 3 6.36686 3.35821 5.72924 3.99584C5.09161 4.63346 4.7334 5.49826 4.7334 6.4V14.3333" stroke="#F2AD81" stroke-width="4.53333" stroke-linecap="round" stroke-linejoin="round"/>
<path d="M1.3335 23.4C1.3335 15.8894 7.4229 9.8 14.9335 9.8C22.4441 9.8 28.5335 15.8894 28.5335 23.4V37H1.3335V23.4ZM28.5335 23.4H46.6668V37H28.5335V23.4Z" stroke="#F2AD81" stroke-width="4.53333" stroke-linejoin="round"/>
<path d="M14.9332 27.9333C17.4369 27.9333 19.4666 25.9037 19.4666 23.4C19.4666 20.8963 17.4369 18.8667 14.9332 18.8667C12.4295 18.8667 10.3999 20.8963 10.3999 23.4C10.3999 25.9037 12.4295 27.9333 14.9332 27.9333Z" stroke="#F2AD81" stroke-width="4.53333"/>
<path d="M41.0003 23.4V27.9333M34.2003 23.4V27.9333M30.8003 23.4H44.4003" stroke="#F2AD81" stroke-width="4.53333" stroke-linecap="round" stroke-linejoin="round"/>
</svg>
