<svg width="209" height="525" viewBox="0 0 209 525" fill="none" xmlns="http://www.w3.org/2000/svg">
<g opacity="0.1">
<path d="M205.014 525H205.102C205.087 525 205.072 525 205.058 525C205.043 525 205.028 525 205.014 525Z" fill="white"/>
<path d="M182.667 525H182.755C182.741 525 182.726 525 182.711 525C182.697 525 182.682 525 182.667 525Z" fill="white"/>
<path d="M160.321 525H160.409C160.395 525 160.38 525 160.365 525C160.35 525 160.336 525 160.321 525Z" fill="white"/>
<path d="M137.975 525H138.063C138.048 525 138.034 525 138.019 525C138.004 525 137.99 525 137.975 525Z" fill="white"/>
<path d="M115.629 525H115.717C115.702 525 115.687 525 115.673 525C115.658 525 115.643 525 115.629 525Z" fill="white"/>
<path d="M93.2829 525H93.3709C93.3562 525 93.3416 525 93.3269 525C93.3122 525 93.2975 525 93.2829 525Z" fill="white"/>
<path d="M70.9366 525H71.0246C71.01 525 70.9953 525 70.9806 525C70.9659 525 70.9512 525 70.9366 525Z" fill="white"/>
<path d="M48.5903 525H48.6783C48.6637 525 48.649 525 48.6343 525C48.6196 525 48.605 525 48.5903 525Z" fill="white"/>
<path d="M26.2445 525H26.3326C26.3179 525 26.3033 525 26.2886 525C26.2738 525 26.2592 525 26.2445 525Z" fill="white"/>
<path d="M156.423 138.844C156.423 141.024 158.188 142.792 160.365 142.792C162.542 142.792 164.307 141.024 164.307 138.844C164.307 136.664 162.542 134.897 160.365 134.897C158.188 134.897 156.423 136.664 156.423 138.844Z" fill="white"/>
<path d="M67.0383 48.913C67.0383 51.0931 68.8033 52.8604 70.9806 52.8604C73.1579 52.8604 74.9229 51.0931 74.9229 48.913C74.9229 46.7329 73.1579 44.9656 70.9806 44.9656C68.8033 44.9656 67.0383 46.7329 67.0383 48.913Z" fill="white"/>
<path d="M70.9806 142.792C68.8033 142.792 67.0383 141.024 67.0383 138.844C67.0383 136.664 68.8033 134.897 70.9806 134.897C73.1579 134.897 74.9229 136.664 74.9229 138.844C74.9229 141.024 73.1579 142.792 70.9806 142.792Z" fill="white"/>
<path d="M67.0383 318.707C67.0383 320.887 68.8033 322.654 70.9806 322.654C73.1579 322.654 74.9229 320.887 74.9229 318.707C74.9229 316.527 73.1579 314.76 70.9806 314.76C68.8033 314.76 67.0383 316.527 67.0383 318.707Z" fill="white"/>
<path d="M70.9806 232.723C68.8033 232.723 67.0383 230.956 67.0383 228.776C67.0383 226.596 68.8033 224.828 70.9806 224.828C73.1579 224.828 74.9229 226.596 74.9229 228.776C74.9229 230.956 73.1579 232.723 70.9806 232.723Z" fill="white"/>
<path d="M156.423 48.913C156.423 51.0931 158.188 52.8604 160.365 52.8604C162.542 52.8604 164.307 51.0931 164.307 48.913C164.307 46.7329 162.542 44.9656 160.365 44.9656C158.188 44.9656 156.423 46.7329 156.423 48.913Z" fill="white"/>
<path d="M67.0383 93.8789C67.0383 96.0589 68.8033 97.8262 70.9806 97.8262C73.1579 97.8262 74.9229 96.0589 74.9229 93.8789C74.9229 91.6988 73.1579 89.9315 70.9806 89.9315C68.8033 89.9315 67.0383 91.6988 67.0383 93.8789Z" fill="white"/>
<path d="M67.0383 273.741C67.0383 275.921 68.8033 277.689 70.9806 277.689C73.1579 277.689 74.9229 275.921 74.9229 273.741C74.9229 271.561 73.1579 269.794 70.9806 269.794C68.8033 269.794 67.0383 271.561 67.0383 273.741Z" fill="white"/>
<path d="M67.0383 3.94737C67.0383 6.12744 68.8033 7.89473 70.9806 7.89473C73.1579 7.89473 74.9229 6.12744 74.9229 3.94737C74.9229 1.7673 73.1579 0 70.9806 0C68.8033 0 67.0383 1.7673 67.0383 3.94737Z" fill="white"/>
<path d="M67.0383 183.81C67.0383 185.99 68.8033 187.757 70.9806 187.757C73.1579 187.757 74.9229 185.99 74.9229 183.81C74.9229 181.63 73.1579 179.863 70.9806 179.863C68.8033 179.863 67.0383 181.63 67.0383 183.81Z" fill="white"/>
<path d="M67.0383 363.672C67.0383 365.852 68.8033 367.62 70.9806 367.62C73.1579 367.62 74.9229 365.852 74.9229 363.672C74.9229 361.492 73.1579 359.725 70.9806 359.725C68.8033 359.725 67.0383 361.492 67.0383 363.672Z" fill="white"/>
<path d="M156.423 93.8789C156.423 96.0589 158.188 97.8262 160.365 97.8262C162.542 97.8262 164.307 96.0589 164.307 93.8789C164.307 91.6988 162.542 89.9315 160.365 89.9315C158.188 89.9315 156.423 91.6988 156.423 93.8789Z" fill="white"/>
<path d="M156.423 3.94737C156.423 6.12744 158.188 7.89473 160.365 7.89473C162.542 7.89473 164.307 6.12744 164.307 3.94737C164.307 1.7673 162.542 0 160.365 0C158.188 0 156.423 1.7673 156.423 3.94737Z" fill="white"/>
<path d="M156.423 183.81C156.423 185.99 158.188 187.757 160.365 187.757C162.542 187.757 164.307 185.99 164.307 183.81C164.307 181.63 162.542 179.863 160.365 179.863C158.188 179.863 156.423 181.63 156.423 183.81Z" fill="white"/>
<path d="M26.2886 142.792C24.1113 142.792 22.3463 141.024 22.3463 138.844C22.3463 136.664 24.1113 134.897 26.2886 134.897C28.4658 134.897 30.2309 136.664 30.2309 138.844C30.2309 141.024 28.4658 142.792 26.2886 142.792Z" fill="white"/>
<path d="M26.2886 322.654C24.1113 322.654 22.3463 320.887 22.3463 318.707C22.3463 316.527 24.1113 314.76 26.2886 314.76C28.4658 314.76 30.2309 316.527 30.2309 318.707C30.2309 320.887 28.4658 322.654 26.2886 322.654Z" fill="white"/>
<path d="M205.058 52.8604C202.88 52.8604 201.115 51.0931 201.115 48.913C201.115 46.7329 202.88 44.9656 205.058 44.9656C207.235 44.9656 209 46.7329 209 48.913C209 51.0931 207.235 52.8604 205.058 52.8604Z" fill="white"/>
<path d="M26.2886 52.8604C24.1113 52.8604 22.3463 51.0931 22.3463 48.913C22.3463 46.7329 24.1113 44.9656 26.2886 44.9656C28.4658 44.9656 30.2309 46.7329 30.2309 48.913C30.2309 51.0931 28.4658 52.8604 26.2886 52.8604Z" fill="white"/>
<path d="M26.2886 232.723C24.1113 232.723 22.3463 230.956 22.3463 228.776C22.3463 226.596 24.1113 224.828 26.2886 224.828C28.4658 224.828 30.2309 226.596 30.2309 228.776C30.2309 230.956 28.4658 232.723 26.2886 232.723Z" fill="white"/>
<path d="M26.2886 412.586C24.1113 412.586 22.3463 410.818 22.3463 408.638C22.3463 406.458 24.1113 404.691 26.2886 404.691C28.4658 404.691 30.2309 406.458 30.2309 408.638C30.2309 410.818 28.4658 412.586 26.2886 412.586Z" fill="white"/>
<path d="M115.673 142.792C113.495 142.792 111.73 141.024 111.73 138.844C111.73 136.664 113.495 134.897 115.673 134.897C117.85 134.897 119.615 136.664 119.615 138.844C119.615 141.024 117.85 142.792 115.673 142.792Z" fill="white"/>
<path d="M115.673 52.8604C113.495 52.8604 111.73 51.0931 111.73 48.913C111.73 46.7329 113.495 44.9656 115.673 44.9656C117.85 44.9656 119.615 46.7329 119.615 48.913C119.615 51.0931 117.85 52.8604 115.673 52.8604Z" fill="white"/>
<path d="M115.673 232.723C113.495 232.723 111.73 230.956 111.73 228.776C111.73 226.596 113.495 224.828 115.673 224.828C117.85 224.828 119.615 226.596 119.615 228.776C119.615 230.956 117.85 232.723 115.673 232.723Z" fill="white"/>
<path d="M205.058 97.8262C202.88 97.8262 201.115 96.0589 201.115 93.8789C201.115 91.6988 202.88 89.9315 205.058 89.9315C207.235 89.9315 209 91.6988 209 93.8789C209 96.0589 207.235 97.8262 205.058 97.8262Z" fill="white"/>
<path d="M26.2886 97.8262C24.1113 97.8262 22.3463 96.0589 22.3463 93.8789C22.3463 91.6988 24.1113 89.9315 26.2886 89.9315C28.4658 89.9315 30.2309 91.6988 30.2309 93.8789C30.2309 96.0589 28.4658 97.8262 26.2886 97.8262Z" fill="white"/>
<path d="M26.2886 277.689C24.1113 277.689 22.3463 275.921 22.3463 273.741C22.3463 271.561 24.1113 269.794 26.2886 269.794C28.4658 269.794 30.2309 271.561 30.2309 273.741C30.2309 275.921 28.4658 277.689 26.2886 277.689Z" fill="white"/>
<path d="M26.2886 457.551C24.1113 457.551 22.3463 455.784 22.3463 453.604C22.3463 451.424 24.1113 449.657 26.2886 449.657C28.4658 449.657 30.2309 451.424 30.2309 453.604C30.2309 455.784 28.4658 457.551 26.2886 457.551Z" fill="white"/>
<path d="M205.058 7.89473C202.88 7.89473 201.115 6.12744 201.115 3.94737C201.115 1.7673 202.88 0 205.058 0C207.235 0 209 1.7673 209 3.94737C209 6.12744 207.235 7.89473 205.058 7.89473Z" fill="white"/>
<path d="M26.2886 7.89473C24.1113 7.89473 22.3463 6.12744 22.3463 3.94737C22.3463 1.7673 24.1113 0 26.2886 0C28.4658 0 30.2309 1.7673 30.2309 3.94737C30.2309 6.12744 28.4658 7.89473 26.2886 7.89473Z" fill="white"/>
<path d="M26.2886 187.757C24.1113 187.757 22.3463 185.99 22.3463 183.81C22.3463 181.63 24.1113 179.863 26.2886 179.863C28.4658 179.863 30.2309 181.63 30.2309 183.81C30.2309 185.99 28.4658 187.757 26.2886 187.757Z" fill="white"/>
<path d="M26.2886 367.62C24.1113 367.62 22.3463 365.852 22.3463 363.672C22.3463 361.492 24.1113 359.725 26.2886 359.725C28.4658 359.725 30.2309 361.492 30.2309 363.672C30.2309 365.852 28.4658 367.62 26.2886 367.62Z" fill="white"/>
<path d="M115.673 97.8262C113.495 97.8262 111.73 96.0589 111.73 93.8789C111.73 91.6988 113.495 89.9315 115.673 89.9315C117.85 89.9315 119.615 91.6988 119.615 93.8789C119.615 96.0589 117.85 97.8262 115.673 97.8262Z" fill="white"/>
<path d="M115.673 277.689C113.495 277.689 111.73 275.921 111.73 273.741C111.73 271.561 113.495 269.794 115.673 269.794C117.85 269.794 119.615 271.561 119.615 273.741C119.615 275.921 117.85 277.689 115.673 277.689Z" fill="white"/>
<path d="M115.673 7.89473C113.495 7.89473 111.73 6.12744 111.73 3.94737C111.73 1.7673 113.495 0 115.673 0C117.85 0 119.615 1.7673 119.615 3.94737C119.615 6.12744 117.85 7.89473 115.673 7.89473Z" fill="white"/>
<path d="M115.673 187.757C113.495 187.757 111.73 185.99 111.73 183.81C111.73 181.63 113.495 179.863 115.673 179.863C117.85 179.863 119.615 181.63 119.615 183.81C119.615 185.99 117.85 187.757 115.673 187.757Z" fill="white"/>
<path d="M70.9806 165.275C68.8033 165.275 67.0383 163.507 67.0383 161.327C67.0383 159.147 68.8033 157.38 70.9806 157.38C73.1579 157.38 74.9229 159.147 74.9229 161.327C74.9229 163.507 73.1579 165.275 70.9806 165.275Z" fill="white"/>
<path d="M70.9806 345.137C68.8033 345.137 67.0383 343.37 67.0383 341.19C67.0383 339.01 68.8033 337.243 70.9806 337.243C73.1579 337.243 74.9229 339.01 74.9229 341.19C74.9229 343.37 73.1579 345.137 70.9806 345.137Z" fill="white"/>
<path d="M70.9806 75.3433C68.8033 75.3433 67.0383 73.576 67.0383 71.3959C67.0383 69.2159 68.8033 67.4486 70.9806 67.4486C73.1579 67.4486 74.9229 69.2159 74.9229 71.3959C74.9229 73.576 73.1579 75.3433 70.9806 75.3433Z" fill="white"/>
<path d="M70.9806 255.206C68.8033 255.206 67.0383 253.438 67.0383 251.258C67.0383 249.078 68.8033 247.311 70.9806 247.311C73.1579 247.311 74.9229 249.078 74.9229 251.258C74.9229 253.438 73.1579 255.206 70.9806 255.206Z" fill="white"/>
<path d="M160.365 165.275C158.188 165.275 156.423 163.507 156.423 161.327C156.423 159.147 158.188 157.38 160.365 157.38C162.542 157.38 164.307 159.147 164.307 161.327C164.307 163.507 162.542 165.275 160.365 165.275Z" fill="white"/>
<path d="M160.365 75.3433C158.188 75.3433 156.423 73.576 156.423 71.3959C156.423 69.2159 158.188 67.4486 160.365 67.4486C162.542 67.4486 164.307 69.2159 164.307 71.3959C164.307 73.576 162.542 75.3433 160.365 75.3433Z" fill="white"/>
<path d="M70.9806 120.309C68.8033 120.309 67.0383 118.542 67.0383 116.362C67.0383 114.181 68.8033 112.414 70.9806 112.414C73.1579 112.414 74.9229 114.181 74.9229 116.362C74.9229 118.542 73.1579 120.309 70.9806 120.309Z" fill="white"/>
<path d="M70.9806 300.172C68.8033 300.172 67.0383 298.404 67.0383 296.224C67.0383 294.044 68.8033 292.277 70.9806 292.277C73.1579 292.277 74.9229 294.044 74.9229 296.224C74.9229 298.404 73.1579 300.172 70.9806 300.172Z" fill="white"/>
<path d="M70.9806 30.3781C68.8033 30.3781 67.0383 28.6109 67.0383 26.4308C67.0383 24.2507 68.8033 22.4834 70.9806 22.4834C73.1579 22.4834 74.9229 24.2507 74.9229 26.4308C74.9229 28.6109 73.1579 30.3781 70.9806 30.3781Z" fill="white"/>
<path d="M70.9806 210.24C68.8033 210.24 67.0383 208.473 67.0383 206.293C67.0383 204.113 68.8033 202.345 70.9806 202.345C73.1579 202.345 74.9229 204.113 74.9229 206.293C74.9229 208.473 73.1579 210.24 70.9806 210.24Z" fill="white"/>
<path d="M70.9806 390.103C68.8033 390.103 67.0383 388.335 67.0383 386.155C67.0383 383.975 68.8033 382.208 70.9806 382.208C73.1579 382.208 74.9229 383.975 74.9229 386.155C74.9229 388.335 73.1579 390.103 70.9806 390.103Z" fill="white"/>
<path d="M160.365 120.309C158.188 120.309 156.423 118.542 156.423 116.362C156.423 114.181 158.188 112.414 160.365 112.414C162.542 112.414 164.307 114.181 164.307 116.362C164.307 118.542 162.542 120.309 160.365 120.309Z" fill="white"/>
<path d="M160.365 30.3781C158.188 30.3781 156.423 28.6109 156.423 26.4308C156.423 24.2507 158.188 22.4834 160.365 22.4834C162.542 22.4834 164.307 24.2507 164.307 26.4308C164.307 28.6109 162.542 30.3781 160.365 30.3781Z" fill="white"/>
<path d="M160.365 210.24C158.188 210.24 156.423 208.473 156.423 206.293C156.423 204.113 158.188 202.345 160.365 202.345C162.542 202.345 164.307 204.113 164.307 206.293C164.307 208.473 162.542 210.24 160.365 210.24Z" fill="white"/>
<path d="M26.2886 165.275C24.1113 165.275 22.3463 163.507 22.3463 161.327C22.3463 159.147 24.1113 157.38 26.2886 157.38C28.4658 157.38 30.2309 159.147 30.2309 161.327C30.2309 163.507 28.4658 165.275 26.2886 165.275Z" fill="white"/>
<path d="M26.2886 345.137C24.1113 345.137 22.3463 343.37 22.3463 341.19C22.3463 339.01 24.1113 337.243 26.2886 337.243C28.4658 337.243 30.2309 339.01 30.2309 341.19C30.2309 343.37 28.4658 345.137 26.2886 345.137Z" fill="white"/>
<path d="M205.058 75.3433C202.88 75.3433 201.115 73.576 201.115 71.3959C201.115 69.2159 202.88 67.4486 205.058 67.4486C207.235 67.4486 209 69.2159 209 71.3959C209 73.576 207.235 75.3433 205.058 75.3433Z" fill="white"/>
<path d="M26.2886 75.3433C24.1113 75.3433 22.3463 73.576 22.3463 71.3959C22.3463 69.2159 24.1113 67.4486 26.2886 67.4486C28.4658 67.4486 30.2309 69.2159 30.2309 71.3959C30.2309 73.576 28.4658 75.3433 26.2886 75.3433Z" fill="white"/>
<path d="M26.2886 255.206C24.1113 255.206 22.3463 253.438 22.3463 251.258C22.3463 249.078 24.1113 247.311 26.2886 247.311C28.4658 247.311 30.2309 249.078 30.2309 251.258C30.2309 253.438 28.4658 255.206 26.2886 255.206Z" fill="white"/>
<path d="M26.2886 435.069C24.1113 435.069 22.3463 433.301 22.3463 431.121C22.3463 428.941 24.1113 427.174 26.2886 427.174C28.4658 427.174 30.2309 428.941 30.2309 431.121C30.2309 433.301 28.4658 435.069 26.2886 435.069Z" fill="white"/>
<path d="M115.673 165.275C113.495 165.275 111.73 163.507 111.73 161.327C111.73 159.147 113.495 157.38 115.673 157.38C117.85 157.38 119.615 159.147 119.615 161.327C119.615 163.507 117.85 165.275 115.673 165.275Z" fill="white"/>
<path d="M115.673 75.3433C113.495 75.3433 111.73 73.576 111.73 71.3959C111.73 69.2159 113.495 67.4486 115.673 67.4486C117.85 67.4486 119.615 69.2159 119.615 71.3959C119.615 73.576 117.85 75.3433 115.673 75.3433Z" fill="white"/>
<path d="M115.673 255.206C113.495 255.206 111.73 253.438 111.73 251.258C111.73 249.078 113.495 247.311 115.673 247.311C117.85 247.311 119.615 249.078 119.615 251.258C119.615 253.438 117.85 255.206 115.673 255.206Z" fill="white"/>
<path d="M205.058 120.309C202.88 120.309 201.115 118.542 201.115 116.362C201.115 114.181 202.88 112.414 205.058 112.414C207.235 112.414 209 114.181 209 116.362C209 118.542 207.235 120.309 205.058 120.309Z" fill="white"/>
<path d="M26.2886 120.309C24.1113 120.309 22.3463 118.542 22.3463 116.362C22.3463 114.181 24.1113 112.414 26.2886 112.414C28.4658 112.414 30.2309 114.181 30.2309 116.362C30.2309 118.542 28.4658 120.309 26.2886 120.309Z" fill="white"/>
<path d="M26.2886 300.172C24.1113 300.172 22.3463 298.404 22.3463 296.224C22.3463 294.044 24.1113 292.277 26.2886 292.277C28.4658 292.277 30.2309 294.044 30.2309 296.224C30.2309 298.404 28.4658 300.172 26.2886 300.172Z" fill="white"/>
<path d="M26.2886 480.034C24.1113 480.034 22.3463 478.267 22.3463 476.087C22.3463 473.907 24.1113 472.14 26.2886 472.14C28.4658 472.14 30.2309 473.907 30.2309 476.087C30.2309 478.267 28.4658 480.034 26.2886 480.034Z" fill="white"/>
<path d="M205.058 30.3781C202.88 30.3781 201.115 28.6109 201.115 26.4308C201.115 24.2507 202.88 22.4834 205.058 22.4834C207.235 22.4834 209 24.2507 209 26.4308C209 28.6109 207.235 30.3781 205.058 30.3781Z" fill="white"/>
<path d="M26.2886 30.3781C24.1113 30.3781 22.3463 28.6109 22.3463 26.4308C22.3463 24.2507 24.1113 22.4834 26.2886 22.4834C28.4658 22.4834 30.2309 24.2507 30.2309 26.4308C30.2309 28.6109 28.4658 30.3781 26.2886 30.3781Z" fill="white"/>
<path d="M26.2886 210.24C24.1113 210.24 22.3463 208.473 22.3463 206.293C22.3463 204.113 24.1113 202.345 26.2886 202.345C28.4658 202.345 30.2309 204.113 30.2309 206.293C30.2309 208.473 28.4658 210.24 26.2886 210.24Z" fill="white"/>
<path d="M26.2886 390.103C24.1113 390.103 22.3463 388.335 22.3463 386.155C22.3463 383.975 24.1113 382.208 26.2886 382.208C28.4658 382.208 30.2309 383.975 30.2309 386.155C30.2309 388.335 28.4658 390.103 26.2886 390.103Z" fill="white"/>
<path d="M115.673 120.309C113.495 120.309 111.73 118.542 111.73 116.362C111.73 114.181 113.495 112.414 115.673 112.414C117.85 112.414 119.615 114.181 119.615 116.362C119.615 118.542 117.85 120.309 115.673 120.309Z" fill="white"/>
<path d="M115.673 300.172C113.495 300.172 111.73 298.404 111.73 296.224C111.73 294.044 113.495 292.277 115.673 292.277C117.85 292.277 119.615 294.044 119.615 296.224C119.615 298.404 117.85 300.172 115.673 300.172Z" fill="white"/>
<path d="M115.673 30.3781C113.495 30.3781 111.73 28.6109 111.73 26.4308C111.73 24.2507 113.495 22.4834 115.673 22.4834C117.85 22.4834 119.615 24.2507 119.615 26.4308C119.615 28.6109 117.85 30.3781 115.673 30.3781Z" fill="white"/>
<path d="M115.673 210.24C113.495 210.24 111.73 208.473 111.73 206.293C111.73 204.113 113.495 202.345 115.673 202.345C117.85 202.345 119.615 204.113 119.615 206.293C119.615 208.473 117.85 210.24 115.673 210.24Z" fill="white"/>
<path d="M48.6343 142.792C46.4571 142.792 44.692 141.024 44.692 138.844C44.692 136.664 46.4571 134.897 48.6343 134.897C50.8116 134.897 52.5766 136.664 52.5766 138.844C52.5766 141.024 50.8116 142.792 48.6343 142.792Z" fill="white"/>
<path d="M48.6343 322.654C46.4571 322.654 44.692 320.887 44.692 318.707C44.692 316.527 46.4571 314.76 48.6343 314.76C50.8116 314.76 52.5766 316.527 52.5766 318.707C52.5766 320.887 50.8116 322.654 48.6343 322.654Z" fill="white"/>
<path d="M48.6343 52.8604C46.4571 52.8604 44.692 51.0931 44.692 48.913C44.692 46.7329 46.4571 44.9656 48.6343 44.9656C50.8116 44.9656 52.5766 46.7329 52.5766 48.913C52.5766 51.0931 50.8116 52.8604 48.6343 52.8604Z" fill="white"/>
<path d="M48.6343 232.723C46.4571 232.723 44.692 230.956 44.692 228.776C44.692 226.596 46.4571 224.828 48.6343 224.828C50.8116 224.828 52.5766 226.596 52.5766 228.776C52.5766 230.956 50.8116 232.723 48.6343 232.723Z" fill="white"/>
<path d="M48.6343 412.586C46.4571 412.586 44.692 410.818 44.692 408.638C44.692 406.458 46.4571 404.691 48.6343 404.691C50.8116 404.691 52.5766 406.458 52.5766 408.638C52.5766 410.818 50.8116 412.586 48.6343 412.586Z" fill="white"/>
<path d="M138.019 142.792C135.842 142.792 134.077 141.024 134.077 138.844C134.077 136.664 135.842 134.897 138.019 134.897C140.196 134.897 141.961 136.664 141.961 138.844C141.961 141.024 140.196 142.792 138.019 142.792Z" fill="white"/>
<path d="M138.019 52.8604C135.842 52.8604 134.077 51.0931 134.077 48.913C134.077 46.7329 135.842 44.9656 138.019 44.9656C140.196 44.9656 141.961 46.7329 141.961 48.913C141.961 51.0931 140.196 52.8604 138.019 52.8604Z" fill="white"/>
<path d="M138.019 232.723C135.842 232.723 134.077 230.956 134.077 228.776C134.077 226.596 135.842 224.828 138.019 224.828C140.196 224.828 141.961 226.596 141.961 228.776C141.961 230.956 140.196 232.723 138.019 232.723Z" fill="white"/>
<path d="M48.6343 97.8262C46.4571 97.8262 44.692 96.0589 44.692 93.8789C44.692 91.6988 46.4571 89.9315 48.6343 89.9315C50.8116 89.9315 52.5766 91.6988 52.5766 93.8789C52.5766 96.0589 50.8116 97.8262 48.6343 97.8262Z" fill="white"/>
<path d="M48.6343 277.689C46.4571 277.689 44.692 275.921 44.692 273.741C44.692 271.561 46.4571 269.794 48.6343 269.794C50.8116 269.794 52.5766 271.561 52.5766 273.741C52.5766 275.921 50.8116 277.689 48.6343 277.689Z" fill="white"/>
<path d="M48.6343 7.89473C46.4571 7.89473 44.692 6.12744 44.692 3.94737C44.692 1.7673 46.4571 0 48.6343 0C50.8116 0 52.5766 1.7673 52.5766 3.94737C52.5766 6.12744 50.8116 7.89473 48.6343 7.89473Z" fill="white"/>
<path d="M48.6343 187.757C46.4571 187.757 44.692 185.99 44.692 183.81C44.692 181.63 46.4571 179.863 48.6343 179.863C50.8116 179.863 52.5766 181.63 52.5766 183.81C52.5766 185.99 50.8116 187.757 48.6343 187.757Z" fill="white"/>
<path d="M48.6343 367.62C46.4571 367.62 44.692 365.852 44.692 363.672C44.692 361.492 46.4571 359.725 48.6343 359.725C50.8116 359.725 52.5766 361.492 52.5766 363.672C52.5766 365.852 50.8116 367.62 48.6343 367.62Z" fill="white"/>
<path d="M138.019 97.8262C135.842 97.8262 134.077 96.0589 134.077 93.8789C134.077 91.6988 135.842 89.9315 138.019 89.9315C140.196 89.9315 141.961 91.6988 141.961 93.8789C141.961 96.0589 140.196 97.8262 138.019 97.8262Z" fill="white"/>
<path d="M138.019 7.89473C135.842 7.89473 134.077 6.12744 134.077 3.94737C134.077 1.7673 135.842 0 138.019 0C140.196 0 141.961 1.7673 141.961 3.94737C141.961 6.12744 140.196 7.89473 138.019 7.89473Z" fill="white"/>
<path d="M138.019 187.757C135.842 187.757 134.077 185.99 134.077 183.81C134.077 181.63 135.842 179.863 138.019 179.863C140.196 179.863 141.961 181.63 141.961 183.81C141.961 185.99 140.196 187.757 138.019 187.757Z" fill="white"/>
<path d="M182.711 142.792C180.534 142.792 178.769 141.024 178.769 138.844C178.769 136.664 180.534 134.897 182.711 134.897C184.889 134.897 186.654 136.664 186.654 138.844C186.654 141.024 184.889 142.792 182.711 142.792Z" fill="white"/>
<path d="M3.94229 142.792C1.76503 142.792 0 141.024 0 138.844C0 136.664 1.76503 134.897 3.94229 134.897C6.11957 134.897 7.8846 136.664 7.8846 138.844C7.8846 141.024 6.11957 142.792 3.94229 142.792Z" fill="white"/>
<path d="M3.94229 322.654C1.76503 322.654 0 320.887 0 318.707C0 316.527 1.76503 314.76 3.94229 314.76C6.11957 314.76 7.8846 316.527 7.8846 318.707C7.8846 320.887 6.11957 322.654 3.94229 322.654Z" fill="white"/>
<path d="M3.94229 502.517C1.76503 502.517 0 500.75 0 498.57C0 496.39 1.76503 494.622 3.94229 494.622C6.11957 494.622 7.8846 496.39 7.8846 498.57C7.8846 500.75 6.11957 502.517 3.94229 502.517Z" fill="white"/>
<path d="M182.711 52.8604C180.534 52.8604 178.769 51.0931 178.769 48.913C178.769 46.7329 180.534 44.9656 182.711 44.9656C184.889 44.9656 186.654 46.7329 186.654 48.913C186.654 51.0931 184.889 52.8604 182.711 52.8604Z" fill="white"/>
<path d="M3.94229 52.8604C1.76503 52.8604 0 51.0931 0 48.913C0 46.7329 1.76503 44.9656 3.94229 44.9656C6.11957 44.9656 7.8846 46.7329 7.8846 48.913C7.8846 51.0931 6.11957 52.8604 3.94229 52.8604Z" fill="white"/>
<path d="M3.94229 232.723C1.76503 232.723 0 230.956 0 228.776C0 226.596 1.76503 224.828 3.94229 224.828C6.11957 224.828 7.8846 226.596 7.8846 228.776C7.8846 230.956 6.11957 232.723 3.94229 232.723Z" fill="white"/>
<path d="M3.94229 412.586C1.76503 412.586 0 410.818 0 408.638C0 406.458 1.76503 404.691 3.94229 404.691C6.11957 404.691 7.8846 406.458 7.8846 408.638C7.8846 410.818 6.11957 412.586 3.94229 412.586Z" fill="white"/>
<path d="M93.3269 142.792C91.1496 142.792 89.3846 141.024 89.3846 138.844C89.3846 136.664 91.1496 134.897 93.3269 134.897C95.5041 134.897 97.2692 136.664 97.2692 138.844C97.2692 141.024 95.5041 142.792 93.3269 142.792Z" fill="white"/>
<path d="M93.3269 322.654C91.1496 322.654 89.3846 320.887 89.3846 318.707C89.3846 316.527 91.1496 314.76 93.3269 314.76C95.5041 314.76 97.2692 316.527 97.2692 318.707C97.2692 320.887 95.5041 322.654 93.3269 322.654Z" fill="white"/>
<path d="M93.3269 52.8604C91.1496 52.8604 89.3846 51.0931 89.3846 48.913C89.3846 46.7329 91.1496 44.9656 93.3269 44.9656C95.5041 44.9656 97.2692 46.7329 97.2692 48.913C97.2692 51.0931 95.5041 52.8604 93.3269 52.8604Z" fill="white"/>
<path d="M93.3269 232.723C91.1496 232.723 89.3846 230.956 89.3846 228.776C89.3846 226.596 91.1496 224.828 93.3269 224.828C95.5041 224.828 97.2692 226.596 97.2692 228.776C97.2692 230.956 95.5041 232.723 93.3269 232.723Z" fill="white"/>
<path d="M182.711 97.8262C180.534 97.8262 178.769 96.0589 178.769 93.8789C178.769 91.6988 180.534 89.9315 182.711 89.9315C184.889 89.9315 186.654 91.6988 186.654 93.8789C186.654 96.0589 184.889 97.8262 182.711 97.8262Z" fill="white"/>
<path d="M3.94229 97.8262C1.76503 97.8262 0 96.0589 0 93.8789C0 91.6988 1.76503 89.9315 3.94229 89.9315C6.11957 89.9315 7.8846 91.6988 7.8846 93.8789C7.8846 96.0589 6.11957 97.8262 3.94229 97.8262Z" fill="white"/>
<path d="M3.94229 277.689C1.76503 277.689 0 275.921 0 273.741C0 271.561 1.76503 269.794 3.94229 269.794C6.11957 269.794 7.8846 271.561 7.8846 273.741C7.8846 275.921 6.11957 277.689 3.94229 277.689Z" fill="white"/>
<path d="M3.94229 457.551C1.76503 457.551 0 455.784 0 453.604C0 451.424 1.76503 449.657 3.94229 449.657C6.11957 449.657 7.8846 451.424 7.8846 453.604C7.8846 455.784 6.11957 457.551 3.94229 457.551Z" fill="white"/>
<path d="M182.711 7.89473C180.534 7.89473 178.769 6.12744 178.769 3.94737C178.769 1.7673 180.534 0 182.711 0C184.889 0 186.654 1.7673 186.654 3.94737C186.654 6.12744 184.889 7.89473 182.711 7.89473Z" fill="white"/>
<path d="M3.94229 7.89473C1.76503 7.89473 0 6.12744 0 3.94737C0 1.7673 1.76503 0 3.94229 0C6.11957 0 7.8846 1.7673 7.8846 3.94737C7.8846 6.12744 6.11957 7.89473 3.94229 7.89473Z" fill="white"/>
<path d="M3.94229 187.757C1.76503 187.757 0 185.99 0 183.81C0 181.63 1.76503 179.863 3.94229 179.863C6.11957 179.863 7.8846 181.63 7.8846 183.81C7.8846 185.99 6.11957 187.757 3.94229 187.757Z" fill="white"/>
<path d="M3.94229 367.62C1.76503 367.62 0 365.852 0 363.672C0 361.492 1.76503 359.725 3.94229 359.725C6.11957 359.725 7.8846 361.492 7.8846 363.672C7.8846 365.852 6.11957 367.62 3.94229 367.62Z" fill="white"/>
<path d="M93.3269 97.8262C91.1496 97.8262 89.3846 96.0589 89.3846 93.8789C89.3846 91.6988 91.1496 89.9315 93.3269 89.9315C95.5041 89.9315 97.2692 91.6988 97.2692 93.8789C97.2692 96.0589 95.5041 97.8262 93.3269 97.8262Z" fill="white"/>
<path d="M93.3269 277.689C91.1496 277.689 89.3846 275.921 89.3846 273.741C89.3846 271.561 91.1496 269.794 93.3269 269.794C95.5041 269.794 97.2692 271.561 97.2692 273.741C97.2692 275.921 95.5041 277.689 93.3269 277.689Z" fill="white"/>
<path d="M93.3269 7.89473C91.1496 7.89473 89.3846 6.12744 89.3846 3.94737C89.3846 1.7673 91.1496 0 93.3269 0C95.5041 0 97.2692 1.7673 97.2692 3.94737C97.2692 6.12744 95.5041 7.89473 93.3269 7.89473Z" fill="white"/>
<path d="M93.3269 187.757C91.1496 187.757 89.3846 185.99 89.3846 183.81C89.3846 181.63 91.1496 179.863 93.3269 179.863C95.5041 179.863 97.2692 181.63 97.2692 183.81C97.2692 185.99 95.5041 187.757 93.3269 187.757Z" fill="white"/>
<path d="M48.6343 165.275C46.4571 165.275 44.692 163.507 44.692 161.327C44.692 159.147 46.4571 157.38 48.6343 157.38C50.8116 157.38 52.5766 159.147 52.5766 161.327C52.5766 163.507 50.8116 165.275 48.6343 165.275Z" fill="white"/>
<path d="M48.6343 345.137C46.4571 345.137 44.692 343.37 44.692 341.19C44.692 339.01 46.4571 337.243 48.6343 337.243C50.8116 337.243 52.5766 339.01 52.5766 341.19C52.5766 343.37 50.8116 345.137 48.6343 345.137Z" fill="white"/>
<path d="M48.6343 75.3433C46.4571 75.3433 44.692 73.576 44.692 71.3959C44.692 69.2159 46.4571 67.4486 48.6343 67.4486C50.8116 67.4486 52.5766 69.2159 52.5766 71.3959C52.5766 73.576 50.8116 75.3433 48.6343 75.3433Z" fill="white"/>
<path d="M48.6343 255.206C46.4571 255.206 44.692 253.438 44.692 251.258C44.692 249.078 46.4571 247.311 48.6343 247.311C50.8116 247.311 52.5766 249.078 52.5766 251.258C52.5766 253.438 50.8116 255.206 48.6343 255.206Z" fill="white"/>
<path d="M48.6343 435.069C46.4571 435.069 44.692 433.301 44.692 431.121C44.692 428.941 46.4571 427.174 48.6343 427.174C50.8116 427.174 52.5766 428.941 52.5766 431.121C52.5766 433.301 50.8116 435.069 48.6343 435.069Z" fill="white"/>
<path d="M138.019 165.275C135.842 165.275 134.077 163.507 134.077 161.327C134.077 159.147 135.842 157.38 138.019 157.38C140.196 157.38 141.961 159.147 141.961 161.327C141.961 163.507 140.196 165.275 138.019 165.275Z" fill="white"/>
<path d="M138.019 75.3433C135.842 75.3433 134.077 73.576 134.077 71.3959C134.077 69.2159 135.842 67.4486 138.019 67.4486C140.196 67.4486 141.961 69.2159 141.961 71.3959C141.961 73.576 140.196 75.3433 138.019 75.3433Z" fill="white"/>
<path d="M138.019 255.206C135.842 255.206 134.077 253.438 134.077 251.258C134.077 249.078 135.842 247.311 138.019 247.311C140.196 247.311 141.961 249.078 141.961 251.258C141.961 253.438 140.196 255.206 138.019 255.206Z" fill="white"/>
<path d="M48.6343 120.309C46.4571 120.309 44.692 118.542 44.692 116.362C44.692 114.181 46.4571 112.414 48.6343 112.414C50.8116 112.414 52.5766 114.181 52.5766 116.362C52.5766 118.542 50.8116 120.309 48.6343 120.309Z" fill="white"/>
<path d="M48.6343 300.172C46.4571 300.172 44.692 298.404 44.692 296.224C44.692 294.044 46.4571 292.277 48.6343 292.277C50.8116 292.277 52.5766 294.044 52.5766 296.224C52.5766 298.404 50.8116 300.172 48.6343 300.172Z" fill="white"/>
<path d="M48.6343 30.3781C46.4571 30.3781 44.692 28.6109 44.692 26.4308C44.692 24.2507 46.4571 22.4834 48.6343 22.4834C50.8116 22.4834 52.5766 24.2507 52.5766 26.4308C52.5766 28.6109 50.8116 30.3781 48.6343 30.3781Z" fill="white"/>
<path d="M48.6343 210.24C46.4571 210.24 44.692 208.473 44.692 206.293C44.692 204.113 46.4571 202.345 48.6343 202.345C50.8116 202.345 52.5766 204.113 52.5766 206.293C52.5766 208.473 50.8116 210.24 48.6343 210.24Z" fill="white"/>
<path d="M48.6343 390.103C46.4571 390.103 44.692 388.335 44.692 386.155C44.692 383.975 46.4571 382.208 48.6343 382.208C50.8116 382.208 52.5766 383.975 52.5766 386.155C52.5766 388.335 50.8116 390.103 48.6343 390.103Z" fill="white"/>
<path d="M138.019 120.309C135.842 120.309 134.077 118.542 134.077 116.362C134.077 114.181 135.842 112.414 138.019 112.414C140.196 112.414 141.961 114.181 141.961 116.362C141.961 118.542 140.196 120.309 138.019 120.309Z" fill="white"/>
<path d="M138.019 30.3781C135.842 30.3781 134.077 28.6109 134.077 26.4308C134.077 24.2507 135.842 22.4834 138.019 22.4834C140.196 22.4834 141.961 24.2507 141.961 26.4308C141.961 28.6109 140.196 30.3781 138.019 30.3781Z" fill="white"/>
<path d="M138.019 210.24C135.842 210.24 134.077 208.473 134.077 206.293C134.077 204.113 135.842 202.345 138.019 202.345C140.196 202.345 141.961 204.113 141.961 206.293C141.961 208.473 140.196 210.24 138.019 210.24Z" fill="white"/>
<path d="M182.711 165.275C180.534 165.275 178.769 163.507 178.769 161.327C178.769 159.147 180.534 157.38 182.711 157.38C184.889 157.38 186.654 159.147 186.654 161.327C186.654 163.507 184.889 165.275 182.711 165.275Z" fill="white"/>
<path d="M3.94229 165.275C1.76503 165.275 0 163.507 0 161.327C0 159.147 1.76503 157.38 3.94229 157.38C6.11957 157.38 7.8846 159.147 7.8846 161.327C7.8846 163.507 6.11957 165.275 3.94229 165.275Z" fill="white"/>
<path d="M3.94229 345.137C1.76503 345.137 0 343.37 0 341.19C0 339.01 1.76503 337.243 3.94229 337.243C6.11957 337.243 7.8846 339.01 7.8846 341.19C7.8846 343.37 6.11957 345.137 3.94229 345.137Z" fill="white"/>
<path d="M3.94229 525C1.76503 525 0 523.233 0 521.053C0 518.873 1.76503 517.105 3.94229 517.105C6.11957 517.105 7.8846 518.873 7.8846 521.053C7.8846 523.233 6.11957 525 3.94229 525Z" fill="white"/>
<path d="M182.711 75.3433C180.534 75.3433 178.769 73.576 178.769 71.3959C178.769 69.2159 180.534 67.4486 182.711 67.4486C184.889 67.4486 186.654 69.2159 186.654 71.3959C186.654 73.576 184.889 75.3433 182.711 75.3433Z" fill="white"/>
<path d="M3.94229 75.3433C1.76503 75.3433 0 73.576 0 71.3959C0 69.2159 1.76503 67.4486 3.94229 67.4486C6.11957 67.4486 7.8846 69.2159 7.8846 71.3959C7.8846 73.576 6.11957 75.3433 3.94229 75.3433Z" fill="white"/>
<path d="M3.94229 255.206C1.76503 255.206 0 253.438 0 251.258C0 249.078 1.76503 247.311 3.94229 247.311C6.11957 247.311 7.8846 249.078 7.8846 251.258C7.8846 253.438 6.11957 255.206 3.94229 255.206Z" fill="white"/>
<path d="M3.94229 435.069C1.76503 435.069 0 433.301 0 431.121C0 428.941 1.76503 427.174 3.94229 427.174C6.11957 427.174 7.8846 428.941 7.8846 431.121C7.8846 433.301 6.11957 435.069 3.94229 435.069Z" fill="white"/>
<path d="M93.3269 165.275C91.1496 165.275 89.3846 163.507 89.3846 161.327C89.3846 159.147 91.1496 157.38 93.3269 157.38C95.5041 157.38 97.2692 159.147 97.2692 161.327C97.2692 163.507 95.5041 165.275 93.3269 165.275Z" fill="white"/>
<path d="M93.3269 345.137C91.1496 345.137 89.3846 343.37 89.3846 341.19C89.3846 339.01 91.1496 337.243 93.3269 337.243C95.5041 337.243 97.2692 339.01 97.2692 341.19C97.2692 343.37 95.5041 345.137 93.3269 345.137Z" fill="white"/>
<path d="M93.3269 75.3433C91.1496 75.3433 89.3846 73.576 89.3846 71.3959C89.3846 69.2159 91.1496 67.4486 93.3269 67.4486C95.5041 67.4486 97.2692 69.2159 97.2692 71.3959C97.2692 73.576 95.5041 75.3433 93.3269 75.3433Z" fill="white"/>
<path d="M93.3269 255.206C91.1496 255.206 89.3846 253.438 89.3846 251.258C89.3846 249.078 91.1496 247.311 93.3269 247.311C95.5041 247.311 97.2692 249.078 97.2692 251.258C97.2692 253.438 95.5041 255.206 93.3269 255.206Z" fill="white"/>
<path d="M182.711 120.309C180.534 120.309 178.769 118.542 178.769 116.362C178.769 114.181 180.534 112.414 182.711 112.414C184.889 112.414 186.654 114.181 186.654 116.362C186.654 118.542 184.889 120.309 182.711 120.309Z" fill="white"/>
<path d="M3.94229 120.309C1.76503 120.309 0 118.542 0 116.362C0 114.181 1.76503 112.414 3.94229 112.414C6.11957 112.414 7.8846 114.181 7.8846 116.362C7.8846 118.542 6.11957 120.309 3.94229 120.309Z" fill="white"/>
<path d="M3.94229 300.172C1.76503 300.172 0 298.404 0 296.224C0 294.044 1.76503 292.277 3.94229 292.277C6.11957 292.277 7.8846 294.044 7.8846 296.224C7.8846 298.404 6.11957 300.172 3.94229 300.172Z" fill="white"/>
<path d="M3.94229 480.034C1.76503 480.034 0 478.267 0 476.087C0 473.907 1.76503 472.14 3.94229 472.14C6.11957 472.14 7.8846 473.907 7.8846 476.087C7.8846 478.267 6.11957 480.034 3.94229 480.034Z" fill="white"/>
<path d="M182.711 30.3781C180.534 30.3781 178.769 28.6109 178.769 26.4308C178.769 24.2507 180.534 22.4834 182.711 22.4834C184.889 22.4834 186.654 24.2507 186.654 26.4308C186.654 28.6109 184.889 30.3781 182.711 30.3781Z" fill="white"/>
<path d="M3.94229 30.3781C1.76503 30.3781 0 28.6109 0 26.4308C0 24.2507 1.76503 22.4834 3.94229 22.4834C6.11957 22.4834 7.8846 24.2507 7.8846 26.4308C7.8846 28.6109 6.11957 30.3781 3.94229 30.3781Z" fill="white"/>
<path d="M3.94229 210.24C1.76503 210.24 0 208.473 0 206.293C0 204.113 1.76503 202.345 3.94229 202.345C6.11957 202.345 7.8846 204.113 7.8846 206.293C7.8846 208.473 6.11957 210.24 3.94229 210.24Z" fill="white"/>
<path d="M3.94229 390.103C1.76503 390.103 0 388.335 0 386.155C0 383.975 1.76503 382.208 3.94229 382.208C6.11957 382.208 7.8846 383.975 7.8846 386.155C7.8846 388.335 6.11957 390.103 3.94229 390.103Z" fill="white"/>
<path d="M93.3269 120.309C91.1496 120.309 89.3846 118.542 89.3846 116.362C89.3846 114.181 91.1496 112.414 93.3269 112.414C95.5041 112.414 97.2692 114.181 97.2692 116.362C97.2692 118.542 95.5041 120.309 93.3269 120.309Z" fill="white"/>
<path d="M93.3269 300.172C91.1496 300.172 89.3846 298.404 89.3846 296.224C89.3846 294.044 91.1496 292.277 93.3269 292.277C95.5041 292.277 97.2692 294.044 97.2692 296.224C97.2692 298.404 95.5041 300.172 93.3269 300.172Z" fill="white"/>
<path d="M93.3269 30.3781C91.1496 30.3781 89.3846 28.6109 89.3846 26.4308C89.3846 24.2507 91.1496 22.4834 93.3269 22.4834C95.5041 22.4834 97.2692 24.2507 97.2692 26.4308C97.2692 28.6109 95.5041 30.3781 93.3269 30.3781Z" fill="white"/>
<path d="M93.3269 210.24C91.1496 210.24 89.3846 208.473 89.3846 206.293C89.3846 204.113 91.1496 202.345 93.3269 202.345C95.5041 202.345 97.2692 204.113 97.2692 206.293C97.2692 208.473 95.5041 210.24 93.3269 210.24Z" fill="white"/>
</g>
</svg>
