<svg width="136" height="136" viewBox="0 0 136 136" fill="none" xmlns="http://www.w3.org/2000/svg">
<path d="M31.7333 104.266H36.2667V99.7297H31.7333V104.266ZM31.7333 131.464H27.2C27.2 132.306 27.4344 133.132 27.877 133.849C28.3197 134.565 28.953 135.144 29.706 135.521C30.459 135.898 31.302 136.057 32.1405 135.982C32.9789 135.906 33.7798 135.598 34.4533 135.093L31.7333 131.464ZM68 104.266V99.7297H66.4859L65.28 100.637L68 104.266ZM40.8 36.2612H36.2667V45.3333H40.8V36.2612ZM95.2 45.3333H99.7333V36.2612H95.2V45.3333ZM40.8 63.4594H36.2667V72.5315H40.8V63.4594ZM77.0667 72.5315H81.6V63.4594H77.0667V72.5315ZM27.2 104.266V131.464H36.2667V104.266H27.2V104.266ZM34.4533 135.093L70.72 107.895L65.28 100.637L29.0133 127.835L34.4533 135.093V135.093ZM68 108.802H122.4V99.7297H68V108.802ZM122.4 108.802C129.916 108.802 136 102.724 136 95.1937H126.933C126.933 97.7066 124.911 99.7297 122.4 99.7297V108.802ZM136 95.1937V13.6082H126.933V95.2027H136V95.1937ZM136 13.6082C136 6.07831 129.916 0 122.4 0V9.07211C124.911 9.07211 126.933 11.0952 126.933 13.6082H136ZM122.4 0H13.6V9.07211H122.4V0ZM13.6 0C6.08373 0 0 6.07831 0 13.6082H9.06667C9.06667 11.0952 11.0885 9.07211 13.6 9.07211V0ZM0 13.6082V95.1937H9.06667V13.6082H0ZM0 95.1937C0 102.724 6.08373 108.802 13.6 108.802V99.7297C13.0043 99.7309 12.4143 99.6144 11.8638 99.3869C11.3132 99.1593 10.813 98.8252 10.3918 98.4038C9.97059 97.9823 9.63671 97.4818 9.40931 96.9309C9.18191 96.3801 9.06547 95.7897 9.06667 95.1937H0ZM13.6 108.802H31.7333V99.7297H13.6V108.802ZM40.8 45.3333H95.2V36.2612H40.8V45.3333ZM40.8 72.5315H77.0667V63.4594H40.8V72.5315Z" fill="white"/>
</svg>
