<svg width="584" height="232" viewBox="0 0 584 232" fill="none" xmlns="http://www.w3.org/2000/svg">
<g opacity="0.1">
<path d="M0.000244141 4.425V4.32728C6.10352e-05 4.34355 0 4.35983 0 4.37614C0 4.39245 6.10352e-05 4.40873 0.000244141 4.425Z" fill="white"/>
<path d="M0.000244141 29.2304V29.1327C6.10352e-05 29.149 0 29.1653 0 29.1816C0 29.1979 6.10352e-05 29.2142 0.000244141 29.2304Z" fill="white"/>
<path d="M0.000244141 54.0358V53.9381C6.10352e-05 53.9544 0 53.9707 0 53.987C0 54.0033 6.10352e-05 54.0196 0.000244141 54.0358Z" fill="white"/>
<path d="M0.000244141 78.8413V78.7435C6.10352e-05 78.7598 0 78.7761 0 78.7924C0 78.8087 6.10352e-05 78.825 0.000244141 78.8413Z" fill="white"/>
<path d="M0.000244141 103.647V103.549C6.10352e-05 103.565 0 103.582 0 103.598C0 103.614 6.10352e-05 103.63 0.000244141 103.647Z" fill="white"/>
<path d="M0.000244141 128.452V128.354C6.10352e-05 128.37 0 128.386 0 128.403C0 128.419 6.10352e-05 128.435 0.000244141 128.452Z" fill="white"/>
<path d="M0.000244141 153.257V153.159C6.10352e-05 153.176 0 153.192 0 153.208C0 153.224 6.10352e-05 153.241 0.000244141 153.257Z" fill="white"/>
<path d="M0.000244141 178.062V177.965C6.10352e-05 177.981 0 177.997 0 178.014C0 178.03 6.10352e-05 178.046 0.000244141 178.062Z" fill="white"/>
<path d="M0.000244141 202.867V202.77C6.10352e-05 202.786 0 202.802 0 202.818C0 202.835 6.10352e-05 202.851 0.000244141 202.867Z" fill="white"/>
<path d="M429.552 58.3631C427.127 58.3631 425.161 56.4039 425.161 53.987C425.161 51.5701 427.127 49.6108 429.552 49.6108C431.977 49.6108 433.943 51.5701 433.943 53.987C433.943 56.4039 431.977 58.3631 429.552 58.3631Z" fill="white"/>
<path d="M529.59 157.584C527.165 157.584 525.199 155.625 525.199 153.208C525.199 150.791 527.165 148.832 529.59 148.832C532.015 148.832 533.981 150.791 533.981 153.208C533.981 155.625 532.015 157.584 529.59 157.584Z" fill="white"/>
<path d="M425.161 153.208C425.161 155.625 427.127 157.584 429.552 157.584C431.977 157.584 433.943 155.625 433.943 153.208C433.943 150.791 431.977 148.832 429.552 148.832C427.127 148.832 425.161 150.791 425.161 153.208Z" fill="white"/>
<path d="M229.476 157.584C227.051 157.584 225.085 155.625 225.085 153.208C225.085 150.791 227.051 148.832 229.476 148.832C231.901 148.832 233.867 150.791 233.867 153.208C233.867 155.625 231.901 157.584 229.476 157.584Z" fill="white"/>
<path d="M325.123 153.208C325.123 155.625 327.089 157.584 329.514 157.584C331.939 157.584 333.905 155.625 333.905 153.208C333.905 150.791 331.939 148.832 329.514 148.832C327.089 148.832 325.123 150.791 325.123 153.208Z" fill="white"/>
<path d="M529.59 58.3631C527.165 58.3631 525.199 56.4039 525.199 53.987C525.199 51.5701 527.165 49.6108 529.59 49.6108C532.015 49.6108 533.981 51.5701 533.981 53.987C533.981 56.4039 532.015 58.3631 529.59 58.3631Z" fill="white"/>
<path d="M479.571 157.584C477.146 157.584 475.18 155.625 475.18 153.208C475.18 150.791 477.146 148.832 479.571 148.832C481.996 148.832 483.962 150.791 483.962 153.208C483.962 155.625 481.996 157.584 479.571 157.584Z" fill="white"/>
<path d="M279.495 157.584C277.07 157.584 275.104 155.625 275.104 153.208C275.104 150.791 277.07 148.832 279.495 148.832C281.92 148.832 283.886 150.791 283.886 153.208C283.886 155.625 281.92 157.584 279.495 157.584Z" fill="white"/>
<path d="M579.609 157.584C577.184 157.584 575.218 155.625 575.218 153.208C575.218 150.791 577.184 148.832 579.609 148.832C582.034 148.832 584 150.791 584 153.208C584 155.625 582.034 157.584 579.609 157.584Z" fill="white"/>
<path d="M379.533 157.584C377.108 157.584 375.142 155.625 375.142 153.208C375.142 150.791 377.108 148.832 379.533 148.832C381.958 148.832 383.924 150.791 383.924 153.208C383.924 155.625 381.958 157.584 379.533 157.584Z" fill="white"/>
<path d="M179.458 157.584C177.033 157.584 175.067 155.625 175.067 153.208C175.067 150.791 177.033 148.832 179.458 148.832C181.883 148.832 183.849 150.791 183.849 153.208C183.849 155.625 181.883 157.584 179.458 157.584Z" fill="white"/>
<path d="M479.571 58.3631C477.146 58.3631 475.18 56.4039 475.18 53.987C475.18 51.5701 477.146 49.6108 479.571 49.6108C481.996 49.6108 483.962 51.5701 483.962 53.987C483.962 56.4039 481.996 58.3631 479.571 58.3631Z" fill="white"/>
<path d="M579.609 58.3631C577.184 58.3631 575.218 56.4039 575.218 53.987C575.218 51.5701 577.184 49.6108 579.609 49.6108C582.034 49.6108 584 51.5701 584 53.987C584 56.4039 582.034 58.3631 579.609 58.3631Z" fill="white"/>
<path d="M379.533 58.3631C377.108 58.3631 375.142 56.4039 375.142 53.987C375.142 51.5701 377.108 49.6108 379.533 49.6108C381.958 49.6108 383.924 51.5701 383.924 53.987C383.924 56.4039 381.958 58.3631 379.533 58.3631Z" fill="white"/>
<path d="M425.161 202.818C425.161 205.235 427.127 207.195 429.552 207.195C431.977 207.195 433.943 205.235 433.943 202.818C433.943 200.402 431.977 198.442 429.552 198.442C427.127 198.442 425.161 200.402 425.161 202.818Z" fill="white"/>
<path d="M225.085 202.818C225.085 205.235 227.051 207.195 229.476 207.195C231.901 207.195 233.867 205.235 233.867 202.818C233.867 200.402 231.901 198.442 229.476 198.442C227.051 198.442 225.085 200.402 225.085 202.818Z" fill="white"/>
<path d="M525.199 4.37614C525.199 6.79302 527.165 8.75228 529.59 8.75228C532.015 8.75228 533.981 6.79302 533.981 4.37614C533.981 1.95926 532.015 0 529.59 0C527.165 0 525.199 1.95926 525.199 4.37614Z" fill="white"/>
<path d="M525.199 202.818C525.199 205.235 527.165 207.195 529.59 207.195C532.015 207.195 533.981 205.235 533.981 202.818C533.981 200.402 532.015 198.442 529.59 198.442C527.165 198.442 525.199 200.402 525.199 202.818Z" fill="white"/>
<path d="M325.123 202.818C325.123 205.235 327.089 207.195 329.514 207.195C331.939 207.195 333.905 205.235 333.905 202.818C333.905 200.402 331.939 198.442 329.514 198.442C327.089 198.442 325.123 200.402 325.123 202.818Z" fill="white"/>
<path d="M125.048 202.818C125.048 205.235 127.014 207.195 129.439 207.195C131.864 207.195 133.83 205.235 133.83 202.818C133.83 200.402 131.864 198.442 129.439 198.442C127.014 198.442 125.048 200.402 125.048 202.818Z" fill="white"/>
<path d="M425.161 103.598C425.161 106.015 427.127 107.974 429.552 107.974C431.977 107.974 433.943 106.015 433.943 103.598C433.943 101.181 431.977 99.2217 429.552 99.2217C427.127 99.2217 425.161 101.181 425.161 103.598Z" fill="white"/>
<path d="M525.199 103.598C525.199 106.015 527.165 107.974 529.59 107.974C532.015 107.974 533.981 106.015 533.981 103.598C533.981 101.181 532.015 99.2217 529.59 99.2217C527.165 99.2217 525.199 101.181 525.199 103.598Z" fill="white"/>
<path d="M325.123 103.598C325.123 106.015 327.089 107.974 329.514 107.974C331.939 107.974 333.905 106.015 333.905 103.598C333.905 101.181 331.939 99.2217 329.514 99.2217C327.089 99.2217 325.123 101.181 325.123 103.598Z" fill="white"/>
<path d="M475.18 4.37614C475.18 6.79302 477.146 8.75228 479.571 8.75228C481.996 8.75228 483.962 6.79302 483.962 4.37614C483.962 1.95926 481.996 0 479.571 0C477.146 0 475.18 1.95926 475.18 4.37614Z" fill="white"/>
<path d="M475.18 202.818C475.18 205.235 477.146 207.195 479.571 207.195C481.996 207.195 483.962 205.235 483.962 202.818C483.962 200.402 481.996 198.442 479.571 198.442C477.146 198.442 475.18 200.402 475.18 202.818Z" fill="white"/>
<path d="M275.104 202.818C275.104 205.235 277.07 207.195 279.495 207.195C281.92 207.195 283.886 205.235 283.886 202.818C283.886 200.402 281.92 198.442 279.495 198.442C277.07 198.442 275.104 200.402 275.104 202.818Z" fill="white"/>
<path d="M75.0285 202.818C75.0285 205.235 76.9944 207.195 79.4195 207.195C81.8445 207.195 83.8104 205.235 83.8104 202.818C83.8104 200.402 81.8445 198.442 79.4195 198.442C76.9944 198.442 75.0285 200.402 75.0285 202.818Z" fill="white"/>
<path d="M575.218 4.37614C575.218 6.79302 577.184 8.75228 579.609 8.75228C582.034 8.75228 584 6.79302 584 4.37614C584 1.95926 582.034 0 579.609 0C577.184 0 575.218 1.95926 575.218 4.37614Z" fill="white"/>
<path d="M575.218 202.818C575.218 205.235 577.184 207.195 579.609 207.195C582.034 207.195 584 205.235 584 202.818C584 200.402 582.034 198.442 579.609 198.442C577.184 198.442 575.218 200.402 575.218 202.818Z" fill="white"/>
<path d="M375.142 202.818C375.142 205.235 377.108 207.195 379.533 207.195C381.958 207.195 383.924 205.235 383.924 202.818C383.924 200.402 381.958 198.442 379.533 198.442C377.108 198.442 375.142 200.402 375.142 202.818Z" fill="white"/>
<path d="M175.067 202.818C175.067 205.235 177.033 207.195 179.458 207.195C181.883 207.195 183.849 205.235 183.849 202.818C183.849 200.402 181.883 198.442 179.458 198.442C177.033 198.442 175.067 200.402 175.067 202.818Z" fill="white"/>
<path d="M475.18 103.598C475.18 106.015 477.146 107.974 479.571 107.974C481.996 107.974 483.962 106.015 483.962 103.598C483.962 101.181 481.996 99.2217 479.571 99.2217C477.146 99.2217 475.18 101.181 475.18 103.598Z" fill="white"/>
<path d="M275.104 103.598C275.104 106.015 277.07 107.974 279.495 107.974C281.92 107.974 283.886 106.015 283.886 103.598C283.886 101.181 281.92 99.2217 279.495 99.2217C277.07 99.2217 275.104 101.181 275.104 103.598Z" fill="white"/>
<path d="M575.218 103.598C575.218 106.015 577.184 107.974 579.609 107.974C582.034 107.974 584 106.015 584 103.598C584 101.181 582.034 99.2217 579.609 99.2217C577.184 99.2217 575.218 101.181 575.218 103.598Z" fill="white"/>
<path d="M375.142 103.598C375.142 106.015 377.108 107.974 379.533 107.974C381.958 107.974 383.924 106.015 383.924 103.598C383.924 101.181 381.958 99.2217 379.533 99.2217C377.108 99.2217 375.142 101.181 375.142 103.598Z" fill="white"/>
<path d="M400.152 153.208C400.152 155.625 402.118 157.584 404.543 157.584C406.968 157.584 408.934 155.625 408.934 153.208C408.934 150.791 406.968 148.832 404.543 148.832C402.118 148.832 400.152 150.791 400.152 153.208Z" fill="white"/>
<path d="M200.076 153.208C200.076 155.625 202.042 157.584 204.467 157.584C206.892 157.584 208.858 155.625 208.858 153.208C208.858 150.791 206.892 148.832 204.467 148.832C202.042 148.832 200.076 150.791 200.076 153.208Z" fill="white"/>
<path d="M500.19 153.208C500.19 155.625 502.155 157.584 504.581 157.584C507.006 157.584 508.972 155.625 508.972 153.208C508.972 150.791 507.006 148.832 504.581 148.832C502.155 148.832 500.19 150.791 500.19 153.208Z" fill="white"/>
<path d="M300.114 153.208C300.114 155.625 302.08 157.584 304.505 157.584C306.93 157.584 308.896 155.625 308.896 153.208C308.896 150.791 306.93 148.832 304.505 148.832C302.08 148.832 300.114 150.791 300.114 153.208Z" fill="white"/>
<path d="M400.152 53.987C400.152 56.4039 402.118 58.3631 404.543 58.3631C406.968 58.3631 408.934 56.4039 408.934 53.987C408.934 51.5701 406.968 49.6108 404.543 49.6108C402.118 49.6108 400.152 51.5701 400.152 53.987Z" fill="white"/>
<path d="M500.19 53.987C500.19 56.4039 502.155 58.3631 504.581 58.3631C507.006 58.3631 508.972 56.4039 508.972 53.987C508.972 51.5701 507.006 49.6108 504.581 49.6108C502.155 49.6108 500.19 51.5701 500.19 53.987Z" fill="white"/>
<path d="M450.171 153.208C450.171 155.625 452.137 157.584 454.562 157.584C456.987 157.584 458.953 155.625 458.953 153.208C458.953 150.791 456.987 148.832 454.562 148.832C452.137 148.832 450.171 150.791 450.171 153.208Z" fill="white"/>
<path d="M250.095 153.208C250.095 155.625 252.061 157.584 254.486 157.584C256.911 157.584 258.877 155.625 258.877 153.208C258.877 150.791 256.911 148.832 254.486 148.832C252.061 148.832 250.095 150.791 250.095 153.208Z" fill="white"/>
<path d="M550.208 153.208C550.208 155.625 552.174 157.584 554.599 157.584C557.024 157.584 558.99 155.625 558.99 153.208C558.99 150.791 557.024 148.832 554.599 148.832C552.174 148.832 550.208 150.791 550.208 153.208Z" fill="white"/>
<path d="M350.133 153.208C350.133 155.625 352.099 157.584 354.524 157.584C356.949 157.584 358.915 155.625 358.915 153.208C358.915 150.791 356.949 148.832 354.524 148.832C352.099 148.832 350.133 150.791 350.133 153.208Z" fill="white"/>
<path d="M150.057 153.208C150.057 155.625 152.023 157.584 154.448 157.584C156.873 157.584 158.839 155.625 158.839 153.208C158.839 150.791 156.873 148.832 154.448 148.832C152.023 148.832 150.057 150.791 150.057 153.208Z" fill="white"/>
<path d="M450.171 53.987C450.171 56.4039 452.137 58.3631 454.562 58.3631C456.987 58.3631 458.953 56.4039 458.953 53.987C458.953 51.5701 456.987 49.6108 454.562 49.6108C452.137 49.6108 450.171 51.5701 450.171 53.987Z" fill="white"/>
<path d="M550.208 53.987C550.208 56.4039 552.174 58.3631 554.599 58.3631C557.024 58.3631 558.99 56.4039 558.99 53.987C558.99 51.5701 557.024 49.6108 554.599 49.6108C552.174 49.6108 550.208 51.5701 550.208 53.987Z" fill="white"/>
<path d="M350.133 53.987C350.133 56.4039 352.099 58.3631 354.524 58.3631C356.949 58.3631 358.915 56.4039 358.915 53.987C358.915 51.5701 356.949 49.6108 354.524 49.6108C352.099 49.6108 350.133 51.5701 350.133 53.987Z" fill="white"/>
<path d="M400.152 202.818C400.152 205.235 402.118 207.195 404.543 207.195C406.968 207.195 408.934 205.235 408.934 202.818C408.934 200.402 406.968 198.442 404.543 198.442C402.118 198.442 400.152 200.402 400.152 202.818Z" fill="white"/>
<path d="M200.076 202.818C200.076 205.235 202.042 207.195 204.467 207.195C206.892 207.195 208.858 205.235 208.858 202.818C208.858 200.402 206.892 198.442 204.467 198.442C202.042 198.442 200.076 200.402 200.076 202.818Z" fill="white"/>
<path d="M500.19 4.37614C500.19 6.79302 502.155 8.75228 504.581 8.75228C507.006 8.75228 508.972 6.79302 508.972 4.37614C508.972 1.95926 507.006 0 504.581 0C502.155 0 500.19 1.95926 500.19 4.37614Z" fill="white"/>
<path d="M500.19 202.818C500.19 205.235 502.155 207.195 504.581 207.195C507.006 207.195 508.972 205.235 508.972 202.818C508.972 200.402 507.006 198.442 504.581 198.442C502.155 198.442 500.19 200.402 500.19 202.818Z" fill="white"/>
<path d="M300.114 202.818C300.114 205.235 302.08 207.195 304.505 207.195C306.93 207.195 308.896 205.235 308.896 202.818C308.896 200.402 306.93 198.442 304.505 198.442C302.08 198.442 300.114 200.402 300.114 202.818Z" fill="white"/>
<path d="M100.038 202.818C100.038 205.235 102.004 207.195 104.429 207.195C106.854 207.195 108.82 205.235 108.82 202.818C108.82 200.402 106.854 198.442 104.429 198.442C102.004 198.442 100.038 200.402 100.038 202.818Z" fill="white"/>
<path d="M400.152 103.598C400.152 106.015 402.118 107.974 404.543 107.974C406.968 107.974 408.934 106.015 408.934 103.598C408.934 101.181 406.968 99.2217 404.543 99.2217C402.118 99.2217 400.152 101.181 400.152 103.598Z" fill="white"/>
<path d="M500.19 103.598C500.19 106.015 502.155 107.974 504.581 107.974C507.006 107.974 508.972 106.015 508.972 103.598C508.972 101.181 507.006 99.2217 504.581 99.2217C502.155 99.2217 500.19 101.181 500.19 103.598Z" fill="white"/>
<path d="M300.114 103.598C300.114 106.015 302.08 107.974 304.505 107.974C306.93 107.974 308.896 106.015 308.896 103.598C308.896 101.181 306.93 99.2217 304.505 99.2217C302.08 99.2217 300.114 101.181 300.114 103.598Z" fill="white"/>
<path d="M450.171 4.37614C450.171 6.79302 452.137 8.75228 454.562 8.75228C456.987 8.75228 458.953 6.79302 458.953 4.37614C458.953 1.95926 456.987 0 454.562 0C452.137 0 450.171 1.95926 450.171 4.37614Z" fill="white"/>
<path d="M450.171 202.818C450.171 205.235 452.137 207.195 454.562 207.195C456.987 207.195 458.953 205.235 458.953 202.818C458.953 200.402 456.987 198.442 454.562 198.442C452.137 198.442 450.171 200.402 450.171 202.818Z" fill="white"/>
<path d="M250.095 202.818C250.095 205.235 252.061 207.195 254.486 207.195C256.911 207.195 258.877 205.235 258.877 202.818C258.877 200.402 256.911 198.442 254.486 198.442C252.061 198.442 250.095 200.402 250.095 202.818Z" fill="white"/>
<path d="M50.0189 202.818C50.0189 205.235 51.9848 207.195 54.4099 207.195C56.835 207.195 58.8008 205.235 58.8008 202.818C58.8008 200.402 56.835 198.442 54.4099 198.442C51.9848 198.442 50.0189 200.402 50.0189 202.818Z" fill="white"/>
<path d="M550.208 4.37614C550.208 6.79302 552.174 8.75228 554.599 8.75228C557.024 8.75228 558.99 6.79302 558.99 4.37614C558.99 1.95926 557.024 0 554.599 0C552.174 0 550.208 1.95926 550.208 4.37614Z" fill="white"/>
<path d="M550.208 202.818C550.208 205.235 552.174 207.195 554.599 207.195C557.024 207.195 558.99 205.235 558.99 202.818C558.99 200.402 557.024 198.442 554.599 198.442C552.174 198.442 550.208 200.402 550.208 202.818Z" fill="white"/>
<path d="M350.133 202.818C350.133 205.235 352.099 207.195 354.524 207.195C356.949 207.195 358.915 205.235 358.915 202.818C358.915 200.402 356.949 198.442 354.524 198.442C352.099 198.442 350.133 200.402 350.133 202.818Z" fill="white"/>
<path d="M150.057 202.818C150.057 205.235 152.023 207.195 154.448 207.195C156.873 207.195 158.839 205.235 158.839 202.818C158.839 200.402 156.873 198.442 154.448 198.442C152.023 198.442 150.057 200.402 150.057 202.818Z" fill="white"/>
<path d="M450.171 103.598C450.171 106.015 452.137 107.974 454.562 107.974C456.987 107.974 458.953 106.015 458.953 103.598C458.953 101.181 456.987 99.2217 454.562 99.2217C452.137 99.2217 450.171 101.181 450.171 103.598Z" fill="white"/>
<path d="M250.095 103.598C250.095 106.015 252.061 107.974 254.486 107.974C256.911 107.974 258.877 106.015 258.877 103.598C258.877 101.181 256.911 99.2217 254.486 99.2217C252.061 99.2217 250.095 101.181 250.095 103.598Z" fill="white"/>
<path d="M550.208 103.598C550.208 106.015 552.174 107.974 554.599 107.974C557.024 107.974 558.99 106.015 558.99 103.598C558.99 101.181 557.024 99.2217 554.599 99.2217C552.174 99.2217 550.208 101.181 550.208 103.598Z" fill="white"/>
<path d="M350.133 103.598C350.133 106.015 352.099 107.974 354.524 107.974C356.949 107.974 358.915 106.015 358.915 103.598C358.915 101.181 356.949 99.2217 354.524 99.2217C352.099 99.2217 350.133 101.181 350.133 103.598Z" fill="white"/>
<path d="M425.161 178.014C425.161 180.43 427.127 182.39 429.552 182.39C431.977 182.39 433.943 180.43 433.943 178.014C433.943 175.597 431.977 173.637 429.552 173.637C427.127 173.637 425.161 175.597 425.161 178.014Z" fill="white"/>
<path d="M225.085 178.014C225.085 180.43 227.051 182.39 229.476 182.39C231.901 182.39 233.867 180.43 233.867 178.014C233.867 175.597 231.901 173.637 229.476 173.637C227.051 173.637 225.085 175.597 225.085 178.014Z" fill="white"/>
<path d="M525.199 178.014C525.199 180.43 527.165 182.39 529.59 182.39C532.015 182.39 533.981 180.43 533.981 178.014C533.981 175.597 532.015 173.637 529.59 173.637C527.165 173.637 525.199 175.597 525.199 178.014Z" fill="white"/>
<path d="M325.123 178.014C325.123 180.43 327.089 182.39 329.514 182.39C331.939 182.39 333.905 180.43 333.905 178.014C333.905 175.597 331.939 173.637 329.514 173.637C327.089 173.637 325.123 175.597 325.123 178.014Z" fill="white"/>
<path d="M125.048 178.014C125.048 180.43 127.014 182.39 129.439 182.39C131.864 182.39 133.83 180.43 133.83 178.014C133.83 175.597 131.864 173.637 129.439 173.637C127.014 173.637 125.048 175.597 125.048 178.014Z" fill="white"/>
<path d="M425.161 78.7924C425.161 81.2093 427.127 83.1685 429.552 83.1685C431.977 83.1685 433.943 81.2093 433.943 78.7924C433.943 76.3755 431.977 74.4163 429.552 74.4163C427.127 74.4163 425.161 76.3755 425.161 78.7924Z" fill="white"/>
<path d="M525.199 78.7924C525.199 81.2093 527.165 83.1685 529.59 83.1685C532.015 83.1685 533.981 81.2093 533.981 78.7924C533.981 76.3755 532.015 74.4163 529.59 74.4163C527.165 74.4163 525.199 76.3755 525.199 78.7924Z" fill="white"/>
<path d="M325.123 78.7924C325.123 81.2093 327.089 83.1685 329.514 83.1685C331.939 83.1685 333.905 81.2093 333.905 78.7924C333.905 76.3755 331.939 74.4163 329.514 74.4163C327.089 74.4163 325.123 76.3755 325.123 78.7924Z" fill="white"/>
<path d="M475.18 178.014C475.18 180.43 477.146 182.39 479.571 182.39C481.996 182.39 483.962 180.43 483.962 178.014C483.962 175.597 481.996 173.637 479.571 173.637C477.146 173.637 475.18 175.597 475.18 178.014Z" fill="white"/>
<path d="M275.104 178.014C275.104 180.43 277.07 182.39 279.495 182.39C281.92 182.39 283.886 180.43 283.886 178.014C283.886 175.597 281.92 173.637 279.495 173.637C277.07 173.637 275.104 175.597 275.104 178.014Z" fill="white"/>
<path d="M575.218 178.014C575.218 180.43 577.184 182.39 579.609 182.39C582.034 182.39 584 180.43 584 178.014C584 175.597 582.034 173.637 579.609 173.637C577.184 173.637 575.218 175.597 575.218 178.014Z" fill="white"/>
<path d="M375.142 178.014C375.142 180.43 377.108 182.39 379.533 182.39C381.958 182.39 383.924 180.43 383.924 178.014C383.924 175.597 381.958 173.637 379.533 173.637C377.108 173.637 375.142 175.597 375.142 178.014Z" fill="white"/>
<path d="M175.067 178.014C175.067 180.43 177.033 182.39 179.458 182.39C181.883 182.39 183.849 180.43 183.849 178.014C183.849 175.597 181.883 173.637 179.458 173.637C177.033 173.637 175.067 175.597 175.067 178.014Z" fill="white"/>
<path d="M475.18 78.7924C475.18 81.2093 477.146 83.1685 479.571 83.1685C481.996 83.1685 483.962 81.2093 483.962 78.7924C483.962 76.3755 481.996 74.4163 479.571 74.4163C477.146 74.4163 475.18 76.3755 475.18 78.7924Z" fill="white"/>
<path d="M575.218 78.7924C575.218 81.2093 577.184 83.1685 579.609 83.1685C582.034 83.1685 584 81.2093 584 78.7924C584 76.3755 582.034 74.4163 579.609 74.4163C577.184 74.4163 575.218 76.3755 575.218 78.7924Z" fill="white"/>
<path d="M375.142 78.7924C375.142 81.2093 377.108 83.1685 379.533 83.1685C381.958 83.1685 383.924 81.2093 383.924 78.7924C383.924 76.3755 381.958 74.4163 379.533 74.4163C377.108 74.4163 375.142 76.3755 375.142 78.7924Z" fill="white"/>
<path d="M425.161 29.1816C425.161 31.5984 427.127 33.5577 429.552 33.5577C431.977 33.5577 433.943 31.5984 433.943 29.1816C433.943 26.7647 431.977 24.8054 429.552 24.8054C427.127 24.8054 425.161 26.7647 425.161 29.1816Z" fill="white"/>
<path d="M425.161 227.624C425.161 230.041 427.127 232 429.552 232C431.977 232 433.943 230.041 433.943 227.624C433.943 225.207 431.977 223.248 429.552 223.248C427.127 223.248 425.161 225.207 425.161 227.624Z" fill="white"/>
<path d="M225.085 227.624C225.085 230.041 227.051 232 229.476 232C231.901 232 233.867 230.041 233.867 227.624C233.867 225.207 231.901 223.248 229.476 223.248C227.051 223.248 225.085 225.207 225.085 227.624Z" fill="white"/>
<path d="M25.0096 227.624C25.0096 230.041 26.9755 232 29.4006 232C31.8256 232 33.7915 230.041 33.7915 227.624C33.7915 225.207 31.8256 223.248 29.4006 223.248C26.9755 223.248 25.0096 225.207 25.0096 227.624Z" fill="white"/>
<path d="M525.199 29.1816C525.199 31.5984 527.165 33.5577 529.59 33.5577C532.015 33.5577 533.981 31.5984 533.981 29.1816C533.981 26.7647 532.015 24.8054 529.59 24.8054C527.165 24.8054 525.199 26.7647 525.199 29.1816Z" fill="white"/>
<path d="M525.199 227.624C525.199 230.041 527.165 232 529.59 232C532.015 232 533.981 230.041 533.981 227.624C533.981 225.207 532.015 223.248 529.59 223.248C527.165 223.248 525.199 225.207 525.199 227.624Z" fill="white"/>
<path d="M325.123 227.624C325.123 230.041 327.089 232 329.514 232C331.939 232 333.905 230.041 333.905 227.624C333.905 225.207 331.939 223.248 329.514 223.248C327.089 223.248 325.123 225.207 325.123 227.624Z" fill="white"/>
<path d="M125.048 227.624C125.048 230.041 127.014 232 129.439 232C131.864 232 133.83 230.041 133.83 227.624C133.83 225.207 131.864 223.248 129.439 223.248C127.014 223.248 125.048 225.207 125.048 227.624Z" fill="white"/>
<path d="M425.161 128.403C425.161 130.82 427.127 132.779 429.552 132.779C431.977 132.779 433.943 130.82 433.943 128.403C433.943 125.986 431.977 124.027 429.552 124.027C427.127 124.027 425.161 125.986 425.161 128.403Z" fill="white"/>
<path d="M225.085 128.403C225.085 130.82 227.051 132.779 229.476 132.779C231.901 132.779 233.867 130.82 233.867 128.403C233.867 125.986 231.901 124.027 229.476 124.027C227.051 124.027 225.085 125.986 225.085 128.403Z" fill="white"/>
<path d="M525.199 128.403C525.199 130.82 527.165 132.779 529.59 132.779C532.015 132.779 533.981 130.82 533.981 128.403C533.981 125.986 532.015 124.027 529.59 124.027C527.165 124.027 525.199 125.986 525.199 128.403Z" fill="white"/>
<path d="M325.123 128.403C325.123 130.82 327.089 132.779 329.514 132.779C331.939 132.779 333.905 130.82 333.905 128.403C333.905 125.986 331.939 124.027 329.514 124.027C327.089 124.027 325.123 125.986 325.123 128.403Z" fill="white"/>
<path d="M475.18 29.1816C475.18 31.5984 477.146 33.5577 479.571 33.5577C481.996 33.5577 483.962 31.5984 483.962 29.1816C483.962 26.7647 481.996 24.8054 479.571 24.8054C477.146 24.8054 475.18 26.7647 475.18 29.1816Z" fill="white"/>
<path d="M475.18 227.624C475.18 230.041 477.146 232 479.571 232C481.996 232 483.962 230.041 483.962 227.624C483.962 225.207 481.996 223.248 479.571 223.248C477.146 223.248 475.18 225.207 475.18 227.624Z" fill="white"/>
<path d="M275.104 227.624C275.104 230.041 277.07 232 279.495 232C281.92 232 283.886 230.041 283.886 227.624C283.886 225.207 281.92 223.248 279.495 223.248C277.07 223.248 275.104 225.207 275.104 227.624Z" fill="white"/>
<path d="M75.0285 227.624C75.0285 230.041 76.9944 232 79.4195 232C81.8445 232 83.8104 230.041 83.8104 227.624C83.8104 225.207 81.8445 223.248 79.4195 223.248C76.9944 223.248 75.0285 225.207 75.0285 227.624Z" fill="white"/>
<path d="M575.218 29.1816C575.218 31.5984 577.184 33.5577 579.609 33.5577C582.034 33.5577 584 31.5984 584 29.1816C584 26.7647 582.034 24.8054 579.609 24.8054C577.184 24.8054 575.218 26.7647 575.218 29.1816Z" fill="white"/>
<path d="M575.218 227.624C575.218 230.041 577.184 232 579.609 232C582.034 232 584 230.041 584 227.624C584 225.207 582.034 223.248 579.609 223.248C577.184 223.248 575.218 225.207 575.218 227.624Z" fill="white"/>
<path d="M375.142 227.624C375.142 230.041 377.108 232 379.533 232C381.958 232 383.924 230.041 383.924 227.624C383.924 225.207 381.958 223.248 379.533 223.248C377.108 223.248 375.142 225.207 375.142 227.624Z" fill="white"/>
<path d="M175.067 227.624C175.067 230.041 177.033 232 179.458 232C181.883 232 183.849 230.041 183.849 227.624C183.849 225.207 181.883 223.248 179.458 223.248C177.033 223.248 175.067 225.207 175.067 227.624Z" fill="white"/>
<path d="M475.18 128.403C475.18 130.82 477.146 132.779 479.571 132.779C481.996 132.779 483.962 130.82 483.962 128.403C483.962 125.986 481.996 124.027 479.571 124.027C477.146 124.027 475.18 125.986 475.18 128.403Z" fill="white"/>
<path d="M275.104 128.403C275.104 130.82 277.07 132.779 279.495 132.779C281.92 132.779 283.886 130.82 283.886 128.403C283.886 125.986 281.92 124.027 279.495 124.027C277.07 124.027 275.104 125.986 275.104 128.403Z" fill="white"/>
<path d="M575.218 128.403C575.218 130.82 577.184 132.779 579.609 132.779C582.034 132.779 584 130.82 584 128.403C584 125.986 582.034 124.027 579.609 124.027C577.184 124.027 575.218 125.986 575.218 128.403Z" fill="white"/>
<path d="M375.142 128.403C375.142 130.82 377.108 132.779 379.533 132.779C381.958 132.779 383.924 130.82 383.924 128.403C383.924 125.986 381.958 124.027 379.533 124.027C377.108 124.027 375.142 125.986 375.142 128.403Z" fill="white"/>
<path d="M400.152 178.014C400.152 180.43 402.118 182.39 404.543 182.39C406.968 182.39 408.934 180.43 408.934 178.014C408.934 175.597 406.968 173.637 404.543 173.637C402.118 173.637 400.152 175.597 400.152 178.014Z" fill="white"/>
<path d="M200.076 178.014C200.076 180.43 202.042 182.39 204.467 182.39C206.892 182.39 208.858 180.43 208.858 178.014C208.858 175.597 206.892 173.637 204.467 173.637C202.042 173.637 200.076 175.597 200.076 178.014Z" fill="white"/>
<path d="M500.19 178.014C500.19 180.43 502.155 182.39 504.581 182.39C507.006 182.39 508.972 180.43 508.972 178.014C508.972 175.597 507.006 173.637 504.581 173.637C502.155 173.637 500.19 175.597 500.19 178.014Z" fill="white"/>
<path d="M300.114 178.014C300.114 180.43 302.08 182.39 304.505 182.39C306.93 182.39 308.896 180.43 308.896 178.014C308.896 175.597 306.93 173.637 304.505 173.637C302.08 173.637 300.114 175.597 300.114 178.014Z" fill="white"/>
<path d="M100.038 178.014C100.038 180.43 102.004 182.39 104.429 182.39C106.854 182.39 108.82 180.43 108.82 178.014C108.82 175.597 106.854 173.637 104.429 173.637C102.004 173.637 100.038 175.597 100.038 178.014Z" fill="white"/>
<path d="M400.152 78.7924C400.152 81.2093 402.118 83.1685 404.543 83.1685C406.968 83.1685 408.934 81.2093 408.934 78.7924C408.934 76.3755 406.968 74.4163 404.543 74.4163C402.118 74.4163 400.152 76.3755 400.152 78.7924Z" fill="white"/>
<path d="M500.19 78.7924C500.19 81.2093 502.155 83.1685 504.581 83.1685C507.006 83.1685 508.972 81.2093 508.972 78.7924C508.972 76.3755 507.006 74.4163 504.581 74.4163C502.155 74.4163 500.19 76.3755 500.19 78.7924Z" fill="white"/>
<path d="M300.114 78.7924C300.114 81.2093 302.08 83.1685 304.505 83.1685C306.93 83.1685 308.896 81.2093 308.896 78.7924C308.896 76.3755 306.93 74.4163 304.505 74.4163C302.08 74.4163 300.114 76.3755 300.114 78.7924Z" fill="white"/>
<path d="M450.171 178.014C450.171 180.43 452.137 182.39 454.562 182.39C456.987 182.39 458.953 180.43 458.953 178.014C458.953 175.597 456.987 173.637 454.562 173.637C452.137 173.637 450.171 175.597 450.171 178.014Z" fill="white"/>
<path d="M250.095 178.014C250.095 180.43 252.061 182.39 254.486 182.39C256.911 182.39 258.877 180.43 258.877 178.014C258.877 175.597 256.911 173.637 254.486 173.637C252.061 173.637 250.095 175.597 250.095 178.014Z" fill="white"/>
<path d="M550.208 178.014C550.208 180.43 552.174 182.39 554.599 182.39C557.024 182.39 558.99 180.43 558.99 178.014C558.99 175.597 557.024 173.637 554.599 173.637C552.174 173.637 550.208 175.597 550.208 178.014Z" fill="white"/>
<path d="M350.133 178.014C350.133 180.43 352.099 182.39 354.524 182.39C356.949 182.39 358.915 180.43 358.915 178.014C358.915 175.597 356.949 173.637 354.524 173.637C352.099 173.637 350.133 175.597 350.133 178.014Z" fill="white"/>
<path d="M150.057 178.014C150.057 180.43 152.023 182.39 154.448 182.39C156.873 182.39 158.839 180.43 158.839 178.014C158.839 175.597 156.873 173.637 154.448 173.637C152.023 173.637 150.057 175.597 150.057 178.014Z" fill="white"/>
<path d="M450.171 78.7924C450.171 81.2093 452.137 83.1685 454.562 83.1685C456.987 83.1685 458.953 81.2093 458.953 78.7924C458.953 76.3755 456.987 74.4163 454.562 74.4163C452.137 74.4163 450.171 76.3755 450.171 78.7924Z" fill="white"/>
<path d="M550.208 78.7924C550.208 81.2093 552.174 83.1685 554.599 83.1685C557.024 83.1685 558.99 81.2093 558.99 78.7924C558.99 76.3755 557.024 74.4163 554.599 74.4163C552.174 74.4163 550.208 76.3755 550.208 78.7924Z" fill="white"/>
<path d="M350.133 78.7924C350.133 81.2093 352.099 83.1685 354.524 83.1685C356.949 83.1685 358.915 81.2093 358.915 78.7924C358.915 76.3755 356.949 74.4163 354.524 74.4163C352.099 74.4163 350.133 76.3755 350.133 78.7924Z" fill="white"/>
<path d="M400.152 29.1816C400.152 31.5984 402.118 33.5577 404.543 33.5577C406.968 33.5577 408.934 31.5984 408.934 29.1816C408.934 26.7647 406.968 24.8054 404.543 24.8054C402.118 24.8054 400.152 26.7647 400.152 29.1816Z" fill="white"/>
<path d="M400.152 227.624C400.152 230.041 402.118 232 404.543 232C406.968 232 408.934 230.041 408.934 227.624C408.934 225.207 406.968 223.248 404.543 223.248C402.118 223.248 400.152 225.207 400.152 227.624Z" fill="white"/>
<path d="M200.076 227.624C200.076 230.041 202.042 232 204.467 232C206.892 232 208.858 230.041 208.858 227.624C208.858 225.207 206.892 223.248 204.467 223.248C202.042 223.248 200.076 225.207 200.076 227.624Z" fill="white"/>
<path d="M0 227.624C0 230.041 1.96588 232 4.39099 232C6.81604 232 8.78192 230.041 8.78192 227.624C8.78192 225.207 6.81604 223.248 4.39099 223.248C1.96588 223.248 0 225.207 0 227.624Z" fill="white"/>
<path d="M500.19 29.1816C500.19 31.5984 502.155 33.5577 504.581 33.5577C507.006 33.5577 508.972 31.5984 508.972 29.1816C508.972 26.7647 507.006 24.8054 504.581 24.8054C502.155 24.8054 500.19 26.7647 500.19 29.1816Z" fill="white"/>
<path d="M500.19 227.624C500.19 230.041 502.155 232 504.581 232C507.006 232 508.972 230.041 508.972 227.624C508.972 225.207 507.006 223.248 504.581 223.248C502.155 223.248 500.19 225.207 500.19 227.624Z" fill="white"/>
<path d="M300.114 227.624C300.114 230.041 302.08 232 304.505 232C306.93 232 308.896 230.041 308.896 227.624C308.896 225.207 306.93 223.248 304.505 223.248C302.08 223.248 300.114 225.207 300.114 227.624Z" fill="white"/>
<path d="M100.038 227.624C100.038 230.041 102.004 232 104.429 232C106.854 232 108.82 230.041 108.82 227.624C108.82 225.207 106.854 223.248 104.429 223.248C102.004 223.248 100.038 225.207 100.038 227.624Z" fill="white"/>
<path d="M400.152 128.403C400.152 130.82 402.118 132.779 404.543 132.779C406.968 132.779 408.934 130.82 408.934 128.403C408.934 125.986 406.968 124.027 404.543 124.027C402.118 124.027 400.152 125.986 400.152 128.403Z" fill="white"/>
<path d="M200.076 128.403C200.076 130.82 202.042 132.779 204.467 132.779C206.892 132.779 208.858 130.82 208.858 128.403C208.858 125.986 206.892 124.027 204.467 124.027C202.042 124.027 200.076 125.986 200.076 128.403Z" fill="white"/>
<path d="M500.19 128.403C500.19 130.82 502.155 132.779 504.581 132.779C507.006 132.779 508.972 130.82 508.972 128.403C508.972 125.986 507.006 124.027 504.581 124.027C502.155 124.027 500.19 125.986 500.19 128.403Z" fill="white"/>
<path d="M300.114 128.403C300.114 130.82 302.08 132.779 304.505 132.779C306.93 132.779 308.896 130.82 308.896 128.403C308.896 125.986 306.93 124.027 304.505 124.027C302.08 124.027 300.114 125.986 300.114 128.403Z" fill="white"/>
<path d="M450.171 29.1816C450.171 31.5984 452.137 33.5577 454.562 33.5577C456.987 33.5577 458.953 31.5984 458.953 29.1816C458.953 26.7647 456.987 24.8054 454.562 24.8054C452.137 24.8054 450.171 26.7647 450.171 29.1816Z" fill="white"/>
<path d="M450.171 227.624C450.171 230.041 452.137 232 454.562 232C456.987 232 458.953 230.041 458.953 227.624C458.953 225.207 456.987 223.248 454.562 223.248C452.137 223.248 450.171 225.207 450.171 227.624Z" fill="white"/>
<path d="M250.095 227.624C250.095 230.041 252.061 232 254.486 232C256.911 232 258.877 230.041 258.877 227.624C258.877 225.207 256.911 223.248 254.486 223.248C252.061 223.248 250.095 225.207 250.095 227.624Z" fill="white"/>
<path d="M50.0189 227.624C50.0189 230.041 51.9848 232 54.4099 232C56.835 232 58.8008 230.041 58.8008 227.624C58.8008 225.207 56.835 223.248 54.4099 223.248C51.9848 223.248 50.0189 225.207 50.0189 227.624Z" fill="white"/>
<path d="M550.208 29.1816C550.208 31.5984 552.174 33.5577 554.599 33.5577C557.024 33.5577 558.99 31.5984 558.99 29.1816C558.99 26.7647 557.024 24.8054 554.599 24.8054C552.174 24.8054 550.208 26.7647 550.208 29.1816Z" fill="white"/>
<path d="M550.208 227.624C550.208 230.041 552.174 232 554.599 232C557.024 232 558.99 230.041 558.99 227.624C558.99 225.207 557.024 223.248 554.599 223.248C552.174 223.248 550.208 225.207 550.208 227.624Z" fill="white"/>
<path d="M350.133 227.624C350.133 230.041 352.099 232 354.524 232C356.949 232 358.915 230.041 358.915 227.624C358.915 225.207 356.949 223.248 354.524 223.248C352.099 223.248 350.133 225.207 350.133 227.624Z" fill="white"/>
<path d="M150.057 227.624C150.057 230.041 152.023 232 154.448 232C156.873 232 158.839 230.041 158.839 227.624C158.839 225.207 156.873 223.248 154.448 223.248C152.023 223.248 150.057 225.207 150.057 227.624Z" fill="white"/>
<path d="M450.171 128.403C450.171 130.82 452.137 132.779 454.562 132.779C456.987 132.779 458.953 130.82 458.953 128.403C458.953 125.986 456.987 124.027 454.562 124.027C452.137 124.027 450.171 125.986 450.171 128.403Z" fill="white"/>
<path d="M250.095 128.403C250.095 130.82 252.061 132.779 254.486 132.779C256.911 132.779 258.877 130.82 258.877 128.403C258.877 125.986 256.911 124.027 254.486 124.027C252.061 124.027 250.095 125.986 250.095 128.403Z" fill="white"/>
<path d="M550.208 128.403C550.208 130.82 552.174 132.779 554.599 132.779C557.024 132.779 558.99 130.82 558.99 128.403C558.99 125.986 557.024 124.027 554.599 124.027C552.174 124.027 550.208 125.986 550.208 128.403Z" fill="white"/>
<path d="M350.133 128.403C350.133 130.82 352.099 132.779 354.524 132.779C356.949 132.779 358.915 130.82 358.915 128.403C358.915 125.986 356.949 124.027 354.524 124.027C352.099 124.027 350.133 125.986 350.133 128.403Z" fill="white"/>
</g>
</svg>
